<?xml version="1.0" encoding="UTF-8"?>
<!DOCTYPE svg PUBLIC "-//W3C//DTD SVG 1.1//EN" "http://www.w3.org/Graphics/SVG/1.1/DTD/svg11.dtd">
<svg xmlns="http://www.w3.org/2000/svg" version="1.1" width="921px" height="397px" style="shape-rendering:geometricPrecision; text-rendering:geometricPrecision; image-rendering:optimizeQuality; fill-rule:evenodd; clip-rule:evenodd" xmlns:xlink="http://www.w3.org/1999/xlink">
<g><path style="opacity:0.992" fill="#dc626d" d="M 169.5,-0.5 C 170.167,-0.5 170.833,-0.5 171.5,-0.5C 172.167,0.166667 172.833,0.833333 173.5,1.5C 171.5,1.5 169.5,1.5 167.5,1.5C 168.167,0.833333 168.833,0.166667 169.5,-0.5 Z"/></g>
<g><path style="opacity:1" fill="#d51e2e" d="M 167.5,1.5 C 169.5,1.5 171.5,1.5 173.5,1.5C 173.5,2.16667 173.5,2.83333 173.5,3.5C 170.5,3.5 167.5,3.5 164.5,3.5C 165.29,2.59872 166.29,1.93205 167.5,1.5 Z"/></g>
<g><path style="opacity:0.921" fill="#050605" d="M 408.5,2.5 C 422.155,0.166725 432.822,4.66672 440.5,16C 436.633,20.2016 432.467,24.0349 428,27.5C 424.898,20.7022 419.732,17.8688 412.5,19C 409.278,20.9904 408.778,23.4904 411,26.5C 419.333,34.1667 427.667,41.8333 436,49.5C 442.481,59.0915 443.148,69.0915 438,79.5C 434.635,84.1864 430.135,87.3531 424.5,89C 408.173,92.6688 396.506,87.0022 389.5,72C 393.072,68.4508 397.239,65.6174 402,63.5C 405.138,66.9664 408.638,70.1331 412.5,73C 424.521,74.3407 427.688,69.8407 422,59.5C 413.4,52.9038 405.4,45.5705 398,37.5C 389.347,21.9696 392.847,10.303 408.5,2.5 Z"/></g>
<g><path style="opacity:0.937" fill="#050605" d="M 597.5,2.5 C 602.833,2.5 608.167,2.5 613.5,2.5C 613.5,10.5 613.5,18.5 613.5,26.5C 616.5,26.5 619.5,26.5 622.5,26.5C 622.5,31.1667 622.5,35.8333 622.5,40.5C 619.5,40.5 616.5,40.5 613.5,40.5C 613.5,56.5 613.5,72.5 613.5,88.5C 608.167,88.5 602.833,88.5 597.5,88.5C 597.5,72.5 597.5,56.5 597.5,40.5C 594.833,40.5 592.167,40.5 589.5,40.5C 589.5,35.8333 589.5,31.1667 589.5,26.5C 592.167,26.5 594.833,26.5 597.5,26.5C 597.5,18.5 597.5,10.5 597.5,2.5 Z"/></g>
<g><path style="opacity:0.953" fill="#050605" d="M 741.5,2.5 C 746.833,2.5 752.167,2.5 757.5,2.5C 757.5,30.8333 757.5,59.1667 757.5,87.5C 752.167,87.5 746.833,87.5 741.5,87.5C 741.5,59.1667 741.5,30.8333 741.5,2.5 Z"/></g>
<g><path style="opacity:0.741" fill="#e1615c" d="M 173.5,1.5 C 179.842,4.66789 185.842,8.33456 191.5,12.5C 188.406,11.7866 185.406,10.7866 182.5,9.5C 182.631,8.62356 182.298,7.95689 181.5,7.5C 178.676,6.34541 176.009,5.01207 173.5,3.5C 173.5,2.83333 173.5,2.16667 173.5,1.5 Z"/></g>
<g><path style="opacity:1" fill="#da3e3b" d="M 164.5,3.5 C 164.279,4.73485 163.612,5.73485 162.5,6.5C 159.611,7.38865 156.945,8.72199 154.5,10.5C 153.702,10.9569 153.369,11.6236 153.5,12.5C 152.167,12.5 150.833,12.5 149.5,12.5C 154.233,9.11011 159.233,6.11011 164.5,3.5 Z"/></g>
<g><path style="opacity:1" fill="#fb0101" d="M 182.5,11.5 C 185.197,13.3104 188.197,14.3104 191.5,14.5C 193.282,15.7196 195.282,16.3862 197.5,16.5C 197.5,17.8333 197.5,19.1667 197.5,20.5C 198.865,22.5909 199.532,24.9242 199.5,27.5C 201.199,27.3398 202.866,27.5065 204.5,28C 203.075,29.7141 203.408,31.0475 205.5,32C 203.24,33.6893 200.74,34.856 198,35.5C 197.506,37.1341 197.34,38.8008 197.5,40.5C 199.857,40.6633 202.19,40.4966 204.5,40C 206.371,37.63 208.038,35.13 209.5,32.5C 211.597,34.1104 213.93,35.2771 216.5,36C 213.764,37.3622 211.431,39.1956 209.5,41.5C 207.929,42.3094 206.262,42.6427 204.5,42.5C 204.649,43.552 204.483,44.552 204,45.5C 200.886,43.8214 198.719,44.6548 197.5,48C 199.518,50.5184 202.185,52.0184 205.5,52.5C 200.762,53.4157 196.929,55.749 194,59.5C 193.506,61.1341 193.34,62.8008 193.5,64.5C 191.665,65.1223 190.498,66.4556 190,68.5C 190.622,75.8941 188.955,76.8941 185,71.5C 184.822,67.7878 183.655,64.4544 181.5,61.5C 182.593,57.8922 182.76,54.2255 182,50.5C 178.381,49.4046 176.214,50.9046 175.5,55C 176.697,59.3858 178.364,63.5525 180.5,67.5C 179.47,71.4649 179.303,75.4649 180,79.5C 181.552,80.9661 183.386,81.9661 185.5,82.5C 186.327,86.4592 186.827,90.4592 187,94.5C 188.286,89.0079 188.953,83.3413 189,77.5C 189.5,177.166 189.667,276.833 189.5,376.5C 186.999,378.451 184.332,379.118 181.5,378.5C 179.806,383.243 177.139,387.243 173.5,390.5C 171.027,391.797 168.693,391.797 166.5,390.5C 166.586,389.504 166.252,388.671 165.5,388C 172.595,387.953 174.595,384.953 171.5,379C 171.905,378.055 172.572,377.388 173.5,377C 171.598,376.801 170.098,375.967 169,374.5C 167.638,375.925 166.138,376.758 164.5,377C 165.126,376.25 165.626,375.416 166,374.5C 166.5,276.501 166.667,178.501 166.5,80.5C 169.044,80.1043 171.211,80.771 173,82.5C 173.167,179.835 173.667,277.168 174.5,374.5C 175.863,375.879 176.863,375.713 177.5,374C 178.663,276.861 178.83,179.695 178,82.5C 177.368,80.4687 176.201,78.802 174.5,77.5C 173.508,73.2172 173.174,68.8839 173.5,64.5C 172.167,64.5 170.833,64.5 169.5,64.5C 169.741,67.7935 168.908,70.7935 167,73.5C 165.429,71.0771 163.263,69.7438 160.5,69.5C 160.579,71.6663 161.246,73.6663 162.5,75.5C 162.101,77.1966 161.601,78.8632 161,80.5C 160.833,130.167 160.667,179.833 160.5,229.5C 160.502,279.544 161.169,329.377 162.5,379C 160.408,379.953 160.075,381.286 161.5,383C 158.854,383.497 156.187,383.664 153.5,383.5C 153.091,379.501 153.925,375.834 156,372.5C 155.81,289.697 155.977,207.03 156.5,124.5C 156.333,110.167 156.167,95.8333 156,81.5C 154.569,78.6095 153.069,75.9428 151.5,73.5C 151.583,65.9589 147.917,62.2923 140.5,62.5C 140.5,63.8333 140.5,65.1667 140.5,66.5C 136.856,67.3151 133.189,68.1484 129.5,69C 127.109,74.2269 123.109,77.3935 117.5,78.5C 116.455,80.4005 115.122,82.0672 113.5,83.5C 108.835,85.3866 104.169,87.0533 99.5,88.5C 97.9157,89.3818 96.249,90.2152 94.5,91C 92.9632,92.1096 92.2965,93.6096 92.5,95.5C 89.4816,95.6646 86.4816,95.498 83.5,95C 82.2283,93.6932 81.2283,92.1932 80.5,90.5C 76.8099,89.8055 73.1432,88.9722 69.5,88C 68.8155,86.3066 67.8155,84.8066 66.5,83.5C 63.5719,82.5159 60.5719,82.1826 57.5,82.5C 57.4001,85.667 58.0668,88.667 59.5,91.5C 62.1071,92.3184 64.7737,92.8184 67.5,93C 68.8333,94.3333 68.8333,95.6667 67.5,97C 68.938,97.2189 70.2713,97.7189 71.5,98.5C 68.5,99.8333 65.5,99.8333 62.5,98.5C 62.1207,96.7869 61.1207,95.7869 59.5,95.5C 55.2151,95.2392 51.8818,93.2392 49.5,89.5C 48.675,88.6143 47.675,88.281 46.5,88.5C 45.8166,86.8235 44.4832,86.1568 42.5,86.5C 42.5,84.8333 42.5,83.1667 42.5,81.5C 45.0143,81.2461 47.3476,80.4127 49.5,79C 50.8228,78.1841 51.4894,77.0174 51.5,75.5C 53.3052,73.8031 55.6385,72.9698 58.5,73C 60.4136,71.5867 61.7469,69.7534 62.5,67.5C 63.6888,66.5713 65.0222,66.238 66.5,66.5C 69.0488,66.4411 71.0488,67.4411 72.5,69.5C 75.7626,68.6305 76.0959,67.2972 73.5,65.5C 77.7682,64.0592 82.1016,62.8925 86.5,62C 87.5505,60.6152 88.8839,59.6152 90.5,59C 92.3051,56.4325 93.6385,53.5992 94.5,50.5C 98.0528,49.0344 101.386,49.3677 104.5,51.5C 106.111,50.6798 106.778,49.3464 106.5,47.5C 105.5,47.5 104.5,47.5 103.5,47.5C 103.651,44.2819 104.484,43.9485 106,46.5C 106.414,46.0426 106.914,45.7093 107.5,45.5C 108.623,46.5437 109.956,47.2104 111.5,47.5C 114.216,45.6134 117.05,43.9468 120,42.5C 121.167,42.6667 122.333,42.8333 123.5,43C 125.711,46.8783 129.045,48.3783 133.5,47.5C 133.421,46.0695 133.754,44.7362 134.5,43.5C 132.002,41.1863 129.002,40.0196 125.5,40C 123.545,39.0467 121.878,37.7134 120.5,36C 122.119,35.7645 123.119,34.9311 123.5,33.5C 125.5,32.8333 126.833,31.5 127.5,29.5C 127.5,28.1667 128.167,27.5 129.5,27.5C 136.31,24.5202 142.976,21.1868 149.5,17.5C 151.261,16.0834 152.594,14.4167 153.5,12.5C 155.199,12.6602 156.866,12.4935 158.5,12C 162.247,8.64437 166.58,7.31104 171.5,8C 168.844,10.2289 169.177,12.0622 172.5,13.5C 173.251,12.624 173.751,11.624 174,10.5C 174.739,11.5742 175.739,12.2409 177,12.5C 178.766,11.7665 180.599,11.4332 182.5,11.5 Z"/></g>
<g><path style="opacity:1" fill="#ee060d" d="M 164.5,3.5 C 167.5,3.5 170.5,3.5 173.5,3.5C 176.009,5.01207 178.676,6.34541 181.5,7.5C 182.298,7.95689 182.631,8.62356 182.5,9.5C 182.5,10.1667 182.5,10.8333 182.5,11.5C 180.599,11.4332 178.766,11.7665 177,12.5C 175.739,12.2409 174.739,11.5742 174,10.5C 173.751,11.624 173.251,12.624 172.5,13.5C 169.177,12.0622 168.844,10.2289 171.5,8C 166.58,7.31104 162.247,8.64437 158.5,12C 156.866,12.4935 155.199,12.6602 153.5,12.5C 153.369,11.6236 153.702,10.9569 154.5,10.5C 156.945,8.72199 159.611,7.38865 162.5,6.5C 163.612,5.73485 164.279,4.73485 164.5,3.5 Z"/></g>
<g><path style="opacity:1" fill="#da1f22" d="M 182.5,9.5 C 185.406,10.7866 188.406,11.7866 191.5,12.5C 191.5,13.1667 191.5,13.8333 191.5,14.5C 188.197,14.3104 185.197,13.3104 182.5,11.5C 182.5,10.8333 182.5,10.1667 182.5,9.5 Z"/></g>
<g><path style="opacity:1" fill="#e14647" d="M 149.5,12.5 C 148.554,15.3126 146.554,16.646 143.5,16.5C 145.118,14.684 147.118,13.3507 149.5,12.5 Z"/></g>
<g><path style="opacity:1" fill="#e3695e" d="M 191.5,12.5 C 194.004,13.5839 196.337,14.9172 198.5,16.5C 198.167,16.5 197.833,16.5 197.5,16.5C 195.282,16.3862 193.282,15.7196 191.5,14.5C 191.5,13.8333 191.5,13.1667 191.5,12.5 Z"/></g>
<g><path style="opacity:0.796" fill="#c1545b" d="M 199.5,17.5 C 201.674,17.7497 203.341,18.7497 204.5,20.5C 201.966,20.7409 200.3,19.7409 199.5,17.5 Z"/></g>
<g><path style="opacity:1" fill="#eb070c" d="M 149.5,12.5 C 150.833,12.5 152.167,12.5 153.5,12.5C 152.594,14.4167 151.261,16.0834 149.5,17.5C 142.976,21.1868 136.31,24.5202 129.5,27.5C 131.998,24.2278 135.331,21.8945 139.5,20.5C 140.386,19.675 140.719,18.675 140.5,17.5C 141.391,16.8902 142.391,16.5569 143.5,16.5C 146.554,16.646 148.554,15.3126 149.5,12.5 Z"/></g>
<g><path style="opacity:1" fill="#c91a1d" d="M 197.5,16.5 C 197.833,16.5 198.167,16.5 198.5,16.5C 199.167,16.5 199.5,16.8333 199.5,17.5C 200.3,19.7409 201.966,20.7409 204.5,20.5C 204.5,21.1667 204.5,21.8333 204.5,22.5C 202.079,22.1218 199.746,21.4552 197.5,20.5C 197.5,19.1667 197.5,17.8333 197.5,16.5 Z"/></g>
<g><path style="opacity:0.769" fill="#dc6e5e" d="M 204.5,20.5 C 206.674,20.7497 208.341,21.7497 209.5,23.5C 209.167,23.5 208.833,23.5 208.5,23.5C 207.167,23.1667 205.833,22.8333 204.5,22.5C 204.5,21.8333 204.5,21.1667 204.5,20.5 Z"/></g>
<g><path style="opacity:1" fill="#d73435" d="M 140.5,17.5 C 140.719,18.675 140.386,19.675 139.5,20.5C 135.331,21.8945 131.998,24.2278 129.5,27.5C 128.167,27.5 127.5,28.1667 127.5,29.5C 121.628,31.3817 115.961,33.7151 110.5,36.5C 120.464,30.1805 130.464,23.8472 140.5,17.5 Z"/></g>
<g><path style="opacity:0.92" fill="#050605" d="M 474.5,25.5 C 502.341,22.3494 516.341,34.6827 516.5,62.5C 500.163,62.3334 483.83,62.5001 467.5,63C 471.885,73.1446 479.552,76.8112 490.5,74C 493.536,72.4819 496.536,70.9819 499.5,69.5C 503.495,71.1637 507.495,72.8304 511.5,74.5C 512.521,75.0016 512.688,75.6683 512,76.5C 500.686,88.4799 487.186,91.9799 471.5,87C 454.991,78.8521 448.825,65.6854 453,47.5C 456.35,36.3177 463.517,28.9844 474.5,25.5 Z M 478.5,39.5 C 487.854,37.35 494.854,40.35 499.5,48.5C 489.183,49.6656 478.849,49.8323 468.5,49C 471.072,44.9256 474.405,41.7589 478.5,39.5 Z"/></g>
<g><path style="opacity:0.931" fill="#050605" d="M 554.5,25.5 C 566.513,22.8789 575.346,26.8789 581,37.5C 582.442,54.4436 582.942,71.4436 582.5,88.5C 577.167,88.5 571.833,88.5 566.5,88.5C 566.909,74.4491 566.409,60.4491 565,46.5C 563.839,42.1668 561.005,40.1668 556.5,40.5C 550.805,41.0193 546.972,44.0193 545,49.5C 543.647,62.4584 543.147,75.4584 543.5,88.5C 538.167,88.5 532.833,88.5 527.5,88.5C 527.5,67.8333 527.5,47.1667 527.5,26.5C 532.833,26.5 538.167,26.5 543.5,26.5C 543.34,28.1992 543.506,29.8659 544,31.5C 547.351,29.0795 550.851,27.0795 554.5,25.5 Z"/></g>
<g><path style="opacity:0.927" fill="#050605" d="M 648.5,25.5 C 652.182,25.3347 655.848,25.5014 659.5,26C 660.022,26.5613 660.355,27.228 660.5,28C 658.929,32.2162 657.262,36.3828 655.5,40.5C 650.629,38.3348 647.129,39.6682 645,44.5C 643.568,59.108 643.068,73.7747 643.5,88.5C 638.167,88.5 632.833,88.5 627.5,88.5C 627.5,67.8333 627.5,47.1667 627.5,26.5C 632.167,26.5 636.833,26.5 641.5,26.5C 641.343,27.8734 641.51,29.2068 642,30.5C 643.965,28.4497 646.132,26.783 648.5,25.5 Z"/></g>
<g><path style="opacity:0.935" fill="#050605" d="M 684.5,25.5 C 694.233,23.9789 703.066,25.9789 711,31.5C 711.494,29.8659 711.66,28.1992 711.5,26.5C 716.833,26.5 722.167,26.5 727.5,26.5C 727.5,47.1667 727.5,67.8333 727.5,88.5C 722.167,88.5 716.833,88.5 711.5,88.5C 711.662,86.4727 711.495,84.4727 711,82.5C 699.746,90.5999 688.246,91.0999 676.5,84C 664.391,72.805 660.891,59.305 666,43.5C 669.773,34.8949 675.94,28.8949 684.5,25.5 Z M 690.5,40.5 C 707.077,39.5737 713.91,47.2403 711,63.5C 706.154,73.1676 698.654,76.0009 688.5,72C 680.533,65.9149 678.367,58.0816 682,48.5C 684.074,44.9231 686.907,42.2565 690.5,40.5 Z"/></g>
<g><path style="opacity:1" fill="#e0686a" d="M 213.5,25.5 C 215.795,26.4746 217.795,27.8079 219.5,29.5C 216.446,29.646 214.446,28.3126 213.5,25.5 Z"/></g>
<g><path style="opacity:1" fill="#d92123" d="M 208.5,23.5 C 208.833,23.5 209.167,23.5 209.5,23.5C 211.062,23.7329 212.395,24.3995 213.5,25.5C 214.446,28.3126 216.446,29.646 219.5,29.5C 221.418,32.1379 224.085,33.8046 227.5,34.5C 227.833,34.5 228.167,34.5 228.5,34.5C 228.5,35.1667 228.5,35.8333 228.5,36.5C 223.844,34.8407 219.178,33.174 214.5,31.5C 212.451,28.7964 210.451,26.1297 208.5,23.5 Z"/></g>
<g><path style="opacity:0.961" fill="#e36960" d="M 219.5,29.5 C 222.511,30.6693 225.178,32.336 227.5,34.5C 224.085,33.8046 221.418,32.1379 219.5,29.5 Z"/></g>
<g><path style="opacity:0.824" fill="#f0857b" d="M 228.5,34.5 C 230.795,35.4746 232.795,36.8079 234.5,38.5C 232.282,38.3862 230.282,37.7196 228.5,36.5C 228.5,35.8333 228.5,35.1667 228.5,34.5 Z"/></g>
<g><path style="opacity:1" fill="#f80202" d="M 197.5,20.5 C 199.746,21.4552 202.079,22.1218 204.5,22.5C 205.833,22.8333 207.167,23.1667 208.5,23.5C 210.451,26.1297 212.451,28.7964 214.5,31.5C 219.178,33.174 223.844,34.8407 228.5,36.5C 228.5,37.8333 228.5,39.1667 228.5,40.5C 230.5,40.5 232.5,40.5 234.5,40.5C 234.137,42.9115 235.137,44.4115 237.5,45C 236.743,46.5122 235.743,47.8455 234.5,49C 237.063,49.9181 239.23,49.4181 241,47.5C 242.897,49.0163 245.064,49.683 247.5,49.5C 247.5,50.8333 247.5,52.1667 247.5,53.5C 251.707,53.6938 253.04,55.6938 251.5,59.5C 255.104,59.9102 258.771,60.0769 262.5,60C 263.779,61.6461 265.445,62.8128 267.5,63.5C 268.052,65.0026 268.052,66.6693 267.5,68.5C 271.182,68.3347 274.848,68.5014 278.5,69C 280.48,70.8252 282.813,71.6585 285.5,71.5C 284.167,75.8333 284.167,80.1667 285.5,84.5C 281.894,84.2108 278.394,84.5442 275,85.5C 274.99,90.3195 277.49,92.6528 282.5,92.5C 282.5,93.5 282.5,94.5 282.5,95.5C 281.167,95.5 280.5,96.1667 280.5,97.5C 280.279,98.7348 279.612,99.7348 278.5,100.5C 274.854,101.157 272.52,103.157 271.5,106.5C 268.833,106.5 266.167,106.5 263.5,106.5C 263.5,105.5 263.5,104.5 263.5,103.5C 261.833,103.5 260.167,103.5 258.5,103.5C 257.508,103.672 256.842,103.338 256.5,102.5C 255.498,100.989 254.831,99.3224 254.5,97.5C 247.379,93.3723 240.046,89.7057 232.5,86.5C 231.934,84.9217 230.934,83.5884 229.5,82.5C 225.156,80.3295 221.156,77.6628 217.5,74.5C 215.955,73.5481 214.288,73.2148 212.5,73.5C 208.561,71.5538 204.894,69.2205 201.5,66.5C 199.693,62.2591 197.027,61.5924 193.5,64.5C 193.34,62.8008 193.506,61.1341 194,59.5C 196.929,55.749 200.762,53.4157 205.5,52.5C 202.185,52.0184 199.518,50.5184 197.5,48C 198.719,44.6548 200.886,43.8214 204,45.5C 204.483,44.552 204.649,43.552 204.5,42.5C 206.262,42.6427 207.929,42.3094 209.5,41.5C 211.431,39.1956 213.764,37.3622 216.5,36C 213.93,35.2771 211.597,34.1104 209.5,32.5C 208.038,35.13 206.371,37.63 204.5,40C 202.19,40.4966 199.857,40.6633 197.5,40.5C 197.34,38.8008 197.506,37.1341 198,35.5C 200.74,34.856 203.24,33.6893 205.5,32C 203.408,31.0475 203.075,29.7141 204.5,28C 202.866,27.5065 201.199,27.3398 199.5,27.5C 199.532,24.9242 198.865,22.5909 197.5,20.5 Z"/></g>
<g><path style="opacity:1" fill="#df4851" d="M 110.5,36.5 C 109.555,39.9868 107.222,41.3201 103.5,40.5C 105.663,38.9172 107.996,37.5839 110.5,36.5 Z"/></g>
<g><path style="opacity:1" fill="#e42221" d="M 228.5,36.5 C 230.282,37.7196 232.282,38.3862 234.5,38.5C 234.5,39.1667 234.5,39.8333 234.5,40.5C 232.5,40.5 230.5,40.5 228.5,40.5C 228.5,39.1667 228.5,37.8333 228.5,36.5 Z"/></g>
<g><path style="opacity:0.8" fill="#f1837d" d="M 234.5,38.5 C 236.027,38.427 237.027,39.0937 237.5,40.5C 236.5,40.5 235.5,40.5 234.5,40.5C 234.5,39.8333 234.5,39.1667 234.5,38.5 Z"/></g>
<g><path style="opacity:0.902" fill="#e56259" d="M 241.5,42.5 C 243.882,43.3507 245.882,44.684 247.5,46.5C 244.733,46.1298 242.733,44.7964 241.5,42.5 Z"/></g>
<g><path style="opacity:1" fill="#e63c3a" d="M 247.5,46.5 C 250.634,47.9009 253.634,49.5675 256.5,51.5C 256.5,52.1667 256.5,52.8333 256.5,53.5C 252.547,52.3608 249.547,50.0274 247.5,46.5 Z"/></g>
<g><path style="opacity:1" fill="#e21216" d="M 127.5,29.5 C 126.833,31.5 125.5,32.8333 123.5,33.5C 120.09,33.3838 118.756,35.0504 119.5,38.5C 113.602,40.2012 107.602,41.5345 101.5,42.5C 101.5,44.1667 101.5,45.8333 101.5,47.5C 97.5854,47.2467 93.9187,47.9133 90.5,49.5C 90.5,50.8333 90.5,52.1667 90.5,53.5C 89.1667,53.5 87.8333,53.5 86.5,53.5C 86.67,54.8221 86.3366,55.9887 85.5,57C 82.7934,57.3951 80.1267,57.8951 77.5,58.5C 78.1667,57.5 78.8333,56.5 79.5,55.5C 87.1275,50.0135 95.1275,45.0135 103.5,40.5C 107.222,41.3201 109.555,39.9868 110.5,36.5C 115.961,33.7151 121.628,31.3817 127.5,29.5 Z"/></g>
<g><path style="opacity:1" fill="#ea6c6e" d="M 256.5,51.5 C 259.709,53.2651 262.709,55.2651 265.5,57.5C 264.127,57.6567 262.793,57.49 261.5,57C 259.935,55.5881 258.269,54.4214 256.5,53.5C 256.5,52.8333 256.5,52.1667 256.5,51.5 Z"/></g>
<g><path style="opacity:1" fill="#e80d0d" d="M 234.5,40.5 C 235.5,40.5 236.5,40.5 237.5,40.5C 239.153,40.6596 240.486,41.3263 241.5,42.5C 242.733,44.7964 244.733,46.1298 247.5,46.5C 249.547,50.0274 252.547,52.3608 256.5,53.5C 258.269,54.4214 259.935,55.5881 261.5,57C 262.793,57.49 264.127,57.6567 265.5,57.5C 268.496,61.339 272.496,63.6724 277.5,64.5C 277.833,64.5 278.167,64.5 278.5,64.5C 278.281,65.675 278.614,66.675 279.5,67.5C 281.911,68.3611 283.911,69.6944 285.5,71.5C 282.813,71.6585 280.48,70.8252 278.5,69C 274.848,68.5014 271.182,68.3347 267.5,68.5C 268.052,66.6693 268.052,65.0026 267.5,63.5C 265.445,62.8128 263.779,61.6461 262.5,60C 258.771,60.0769 255.104,59.9102 251.5,59.5C 253.04,55.6938 251.707,53.6938 247.5,53.5C 247.5,52.1667 247.5,50.8333 247.5,49.5C 245.064,49.683 242.897,49.0163 241,47.5C 239.23,49.4181 237.063,49.9181 234.5,49C 235.743,47.8455 236.743,46.5122 237.5,45C 235.137,44.4115 234.137,42.9115 234.5,40.5 Z"/></g>
<g><path style="opacity:0.804" fill="#e6736c" d="M 265.5,57.5 C 269.836,59.332 273.836,61.6654 277.5,64.5C 272.496,63.6724 268.496,61.339 265.5,57.5 Z"/></g>
<g><path style="opacity:1" fill="#f30405" d="M 123.5,33.5 C 123.119,34.9311 122.119,35.7645 120.5,36C 121.878,37.7134 123.545,39.0467 125.5,40C 129.002,40.0196 132.002,41.1863 134.5,43.5C 133.754,44.7362 133.421,46.0695 133.5,47.5C 129.045,48.3783 125.711,46.8783 123.5,43C 122.333,42.8333 121.167,42.6667 120,42.5C 117.05,43.9468 114.216,45.6134 111.5,47.5C 109.956,47.2104 108.623,46.5437 107.5,45.5C 106.914,45.7093 106.414,46.0426 106,46.5C 104.484,43.9485 103.651,44.2819 103.5,47.5C 104.5,47.5 105.5,47.5 106.5,47.5C 106.778,49.3464 106.111,50.6798 104.5,51.5C 101.386,49.3677 98.0528,49.0344 94.5,50.5C 93.6385,53.5992 92.3051,56.4325 90.5,59C 88.8839,59.6152 87.5505,60.6152 86.5,62C 82.1016,62.8925 77.7682,64.0592 73.5,65.5C 76.0959,67.2972 75.7626,68.6305 72.5,69.5C 71.0488,67.4411 69.0488,66.4411 66.5,66.5C 67.8333,65.1667 69.1667,63.8333 70.5,62.5C 72.5534,60.8027 74.8868,59.4694 77.5,58.5C 80.1267,57.8951 82.7934,57.3951 85.5,57C 86.3366,55.9887 86.67,54.8221 86.5,53.5C 87.8333,53.5 89.1667,53.5 90.5,53.5C 90.5,52.1667 90.5,50.8333 90.5,49.5C 93.9187,47.9133 97.5854,47.2467 101.5,47.5C 101.5,45.8333 101.5,44.1667 101.5,42.5C 107.602,41.5345 113.602,40.2012 119.5,38.5C 118.756,35.0504 120.09,33.3838 123.5,33.5 Z"/></g>
<g><path style="opacity:1" fill="#d43336" d="M 79.5,55.5 C 78.8333,56.5 78.1667,57.5 77.5,58.5C 74.8868,59.4694 72.5534,60.8027 70.5,62.5C 69.8333,62.5 69.1667,62.5 68.5,62.5C 71.6505,59.4208 75.3171,57.0875 79.5,55.5 Z"/></g>
<g><path style="opacity:1" fill="#f60302" d="M 166.5,390.5 C 165.182,389.243 163.849,387.909 162.5,386.5C 161.311,385.571 159.978,385.238 158.5,385.5C 156.5,385.5 154.5,385.5 152.5,385.5C 152.167,385.5 151.833,385.5 151.5,385.5C 149.853,382.079 149.187,378.413 149.5,374.5C 148.87,274.12 149.537,173.787 151.5,73.5C 153.069,75.9428 154.569,78.6095 156,81.5C 156.167,95.8333 156.333,110.167 156.5,124.5C 155.977,207.03 155.81,289.697 156,372.5C 153.925,375.834 153.091,379.501 153.5,383.5C 156.187,383.664 158.854,383.497 161.5,383C 160.075,381.286 160.408,379.953 162.5,379C 161.169,329.377 160.502,279.544 160.5,229.5C 160.667,179.833 160.833,130.167 161,80.5C 161.601,78.8632 162.101,77.1966 162.5,75.5C 161.246,73.6663 160.579,71.6663 160.5,69.5C 163.263,69.7438 165.429,71.0771 167,73.5C 168.908,70.7935 169.741,67.7935 169.5,64.5C 170.833,64.5 172.167,64.5 173.5,64.5C 173.174,68.8839 173.508,73.2172 174.5,77.5C 176.201,78.802 177.368,80.4687 178,82.5C 178.83,179.695 178.663,276.861 177.5,374C 176.863,375.713 175.863,375.879 174.5,374.5C 173.667,277.168 173.167,179.835 173,82.5C 171.211,80.771 169.044,80.1043 166.5,80.5C 166.667,178.501 166.5,276.501 166,374.5C 165.626,375.416 165.126,376.25 164.5,377C 166.138,376.758 167.638,375.925 169,374.5C 170.098,375.967 171.598,376.801 173.5,377C 172.572,377.388 171.905,378.055 171.5,379C 174.595,384.953 172.595,387.953 165.5,388C 166.252,388.671 166.586,389.504 166.5,390.5 Z"/></g>
<g><path style="opacity:0.725" fill="#e25c50" d="M 278.5,64.5 C 284.373,67.9311 290.04,71.5978 295.5,75.5C 294.833,75.5 294.167,75.5 293.5,75.5C 290.833,74.1667 288.167,72.8333 285.5,71.5C 283.911,69.6944 281.911,68.3611 279.5,67.5C 278.614,66.675 278.281,65.675 278.5,64.5 Z"/></g>
<g><path style="opacity:1" fill="#da191c" d="M 68.5,62.5 C 69.1667,62.5 69.8333,62.5 70.5,62.5C 69.1667,63.8333 67.8333,65.1667 66.5,66.5C 65.0222,66.238 63.6888,66.5713 62.5,67.5C 61.7469,69.7534 60.4136,71.5867 58.5,73C 55.6385,72.9698 53.3052,73.8031 51.5,75.5C 49.8333,75.5 48.1667,75.5 46.5,75.5C 53.4957,70.666 60.829,66.3327 68.5,62.5 Z"/></g>
<g><path style="opacity:1" fill="#d55255" d="M 295.5,75.5 C 298.004,76.5839 300.337,77.9172 302.5,79.5C 300.409,79.6816 298.409,79.3482 296.5,78.5C 295.614,77.675 295.281,76.675 295.5,75.5 Z"/></g>
<g><path style="opacity:1" fill="#e50c12" d="M 46.5,75.5 C 48.1667,75.5 49.8333,75.5 51.5,75.5C 51.4894,77.0174 50.8228,78.1841 49.5,79C 47.3476,80.4127 45.0143,81.2461 42.5,81.5C 42.5,83.1667 42.5,84.8333 42.5,86.5C 44.4832,86.1568 45.8166,86.8235 46.5,88.5C 45.5,88.5 44.5,88.5 43.5,88.5C 42.2905,88.0679 41.2905,87.4013 40.5,86.5C 40.0962,85.2436 39.4295,84.0769 38.5,83C 39.4295,81.9231 40.0962,80.7564 40.5,79.5C 42.1184,77.684 44.1184,76.3507 46.5,75.5 Z"/></g>
<g><path style="opacity:1" fill="#f0030b" d="M 191.5,71.5 C 191.5,172.5 191.5,273.5 191.5,374.5C 191.5,377.5 191.5,380.5 191.5,383.5C 189.323,384.279 187.656,385.613 186.5,387.5C 182.698,388.902 179.031,390.568 175.5,392.5C 167.876,394.343 162.209,392.01 158.5,385.5C 159.978,385.238 161.311,385.571 162.5,386.5C 163.849,387.909 165.182,389.243 166.5,390.5C 168.693,391.797 171.027,391.797 173.5,390.5C 177.139,387.243 179.806,383.243 181.5,378.5C 184.332,379.118 186.999,378.451 189.5,376.5C 190.167,274.833 190.833,173.167 191.5,71.5 Z"/></g>
<g><path style="opacity:0.094" fill="#e78984" d="M 302.5,79.5 C 304.722,79.9748 305.389,80.9748 304.5,82.5C 303.449,81.7777 302.782,80.7777 302.5,79.5 Z"/></g>
<g><path style="opacity:1" fill="#d80c0a" d="M 212.5,73.5 C 214.288,73.2148 215.955,73.5481 217.5,74.5C 221.156,77.6628 225.156,80.3295 229.5,82.5C 230.934,83.5884 231.934,84.9217 232.5,86.5C 225.289,82.9464 218.622,78.6131 212.5,73.5 Z"/></g>
<g><path style="opacity:0.918" fill="#d51617" d="M 293.5,75.5 C 294.167,75.5 294.833,75.5 295.5,75.5C 295.281,76.675 295.614,77.675 296.5,78.5C 298.409,79.3482 300.409,79.6816 302.5,79.5C 302.782,80.7777 303.449,81.7777 304.5,82.5C 302.777,84.2181 300.777,85.5514 298.5,86.5C 299.502,84.9891 300.169,83.3224 300.5,81.5C 296.22,81.5542 293.886,79.5542 293.5,75.5 Z"/></g>
<g><path style="opacity:0.659" fill="#d1212d" d="M 40.5,79.5 C 40.0962,80.7564 39.4295,81.9231 38.5,83C 39.4295,84.0769 40.0962,85.2436 40.5,86.5C 38.3875,85.5604 36.3875,84.3937 34.5,83C 36.3911,81.5576 38.3911,80.3909 40.5,79.5 Z"/></g>
<g><path style="opacity:1" fill="#ef0604" d="M 285.5,71.5 C 288.167,72.8333 290.833,74.1667 293.5,75.5C 293.886,79.5542 296.22,81.5542 300.5,81.5C 300.169,83.3224 299.502,84.9891 298.5,86.5C 296.712,86.2148 295.045,86.5481 293.5,87.5C 290.227,90.9449 286.56,93.6116 282.5,95.5C 282.5,94.5 282.5,93.5 282.5,92.5C 277.49,92.6528 274.99,90.3195 275,85.5C 278.394,84.5442 281.894,84.2108 285.5,84.5C 284.167,80.1667 284.167,75.8333 285.5,71.5 Z"/></g>
<g><path style="opacity:0.6" fill="#db1713" d="M 298.5,86.5 C 294.235,90.6379 289.569,94.3046 284.5,97.5C 283.167,97.5 281.833,97.5 280.5,97.5C 280.5,96.1667 281.167,95.5 282.5,95.5C 286.56,93.6116 290.227,90.9449 293.5,87.5C 295.045,86.5481 296.712,86.2148 298.5,86.5 Z"/></g>
<g><path style="opacity:1" fill="#d8141c" d="M 232.5,86.5 C 240.046,89.7057 247.379,93.3723 254.5,97.5C 254.831,99.3224 255.498,100.989 256.5,102.5C 248.119,97.6497 240.119,92.3163 232.5,86.5 Z"/></g>
<g><path style="opacity:1" fill="#e2060f" d="M 201.5,66.5 C 199.956,66.2969 198.622,65.6302 197.5,64.5C 196.702,64.9569 196.369,65.6236 196.5,66.5C 195.662,66.8417 195.328,67.5084 195.5,68.5C 194.326,69.5137 193.66,70.847 193.5,72.5C 192.833,173.167 192.167,273.833 191.5,374.5C 191.5,273.5 191.5,172.5 191.5,71.5C 192.167,69.1667 192.833,66.8333 193.5,64.5C 197.027,61.5924 199.693,62.2591 201.5,66.5 Z"/></g>
<g><path style="opacity:1" fill="#f60205" d="M 193.5,64.5 C 192.833,66.8333 192.167,69.1667 191.5,71.5C 190.833,173.167 190.167,274.833 189.5,376.5C 189.667,276.833 189.5,177.166 189,77.5C 188.953,83.3413 188.286,89.0079 187,94.5C 186.827,90.4592 186.327,86.4592 185.5,82.5C 183.386,81.9661 181.552,80.9661 180,79.5C 179.303,75.4649 179.47,71.4649 180.5,67.5C 178.364,63.5525 176.697,59.3858 175.5,55C 176.214,50.9046 178.381,49.4046 182,50.5C 182.76,54.2255 182.593,57.8922 181.5,61.5C 183.655,64.4544 184.822,67.7878 185,71.5C 188.955,76.8941 190.622,75.8941 190,68.5C 190.498,66.4556 191.665,65.1223 193.5,64.5 Z"/></g>
<g><path style="opacity:1" fill="#d90712" d="M 193.5,72.5 C 193.5,173.167 193.5,273.833 193.5,374.5C 193.5,377.5 193.5,380.5 193.5,383.5C 192.833,383.5 192.167,383.5 191.5,383.5C 191.5,380.5 191.5,377.5 191.5,374.5C 192.167,273.833 192.833,173.167 193.5,72.5 Z"/></g>
<g><path style="opacity:1" fill="#da3b40" d="M 195.5,68.5 C 194.844,170.65 194.178,272.65 193.5,374.5C 193.5,273.833 193.5,173.167 193.5,72.5C 193.66,70.847 194.326,69.5137 195.5,68.5 Z"/></g>
<g><path style="opacity:1" fill="#e77771" d="M 196.5,66.5 C 196.667,171.834 196.5,277.167 196,382.5C 195.329,383.252 194.496,383.586 193.5,383.5C 193.5,380.5 193.5,377.5 193.5,374.5C 194.178,272.65 194.844,170.65 195.5,68.5C 195.328,67.5084 195.662,66.8417 196.5,66.5 Z"/></g>
<g><path style="opacity:0.325" fill="#d92f34" d="M 99.5,93.5 C 97.8816,95.316 95.8816,96.6493 93.5,97.5C 94.733,95.2036 96.733,93.8702 99.5,93.5 Z"/></g>
<g><path style="opacity:1" fill="#f20508" d="M 99.5,88.5 C 99.5,90.1667 99.5,91.8333 99.5,93.5C 96.733,93.8702 94.733,95.2036 93.5,97.5C 91.712,97.2148 90.0453,97.5481 88.5,98.5C 84.8478,100.995 81.1811,103.495 77.5,106C 75.1902,106.497 72.8568,106.663 70.5,106.5C 66.7792,104.646 63.4459,102.313 60.5,99.5C 60.1667,98.1667 59.8333,96.8333 59.5,95.5C 61.1207,95.7869 62.1207,96.7869 62.5,98.5C 65.5,99.8333 68.5,99.8333 71.5,98.5C 70.2713,97.7189 68.938,97.2189 67.5,97C 68.8333,95.6667 68.8333,94.3333 67.5,93C 64.7737,92.8184 62.1071,92.3184 59.5,91.5C 58.0668,88.667 57.4001,85.667 57.5,82.5C 60.5719,82.1826 63.5719,82.5159 66.5,83.5C 67.8155,84.8066 68.8155,86.3066 69.5,88C 73.1432,88.9722 76.8099,89.8055 80.5,90.5C 81.2283,92.1932 82.2283,93.6932 83.5,95C 86.4816,95.498 89.4816,95.6646 92.5,95.5C 92.2965,93.6096 92.9632,92.1096 94.5,91C 96.249,90.2152 97.9157,89.3818 99.5,88.5 Z"/></g>
<g><path style="opacity:0.565" fill="#d41b1d" d="M 43.5,88.5 C 44.5,88.5 45.5,88.5 46.5,88.5C 47.675,88.281 48.675,88.6143 49.5,89.5C 51.8818,93.2392 55.2151,95.2392 59.5,95.5C 59.8333,96.8333 60.1667,98.1667 60.5,99.5C 54.5591,96.2197 48.8924,92.553 43.5,88.5 Z"/></g>
<g><path style="opacity:0.882" fill="#5d5d5d" d="M 339.5,103.5 C 338.5,103.5 337.5,103.5 336.5,103.5C 337.74,101.015 338.74,101.015 339.5,103.5 Z"/></g>
<g><path style="opacity:1" fill="#d42827" d="M 93.5,97.5 C 87.4969,102.663 80.8302,106.496 73.5,109C 72.4293,108.148 71.4293,107.315 70.5,106.5C 72.8568,106.663 75.1902,106.497 77.5,106C 81.1811,103.495 84.8478,100.995 88.5,98.5C 90.0453,97.5481 91.712,97.2148 93.5,97.5 Z"/></g>
<g><path style="opacity:1" fill="#030303" d="M 3.5,103.5 C 5.41794,106.138 8.08461,107.805 11.5,108.5C 11.8333,108.5 12.1667,108.5 12.5,108.5C 13.4461,111.313 15.4461,112.646 18.5,112.5C 25.4956,115.663 32.1623,119.329 38.5,123.5C 38.7214,124.735 39.3881,125.735 40.5,126.5C 45.3926,129.114 50.3926,131.447 55.5,133.5C 56.609,133.557 57.609,133.89 58.5,134.5C 59.4461,137.313 61.4461,138.646 64.5,138.5C 71.4607,141.647 78.1273,145.313 84.5,149.5C 86.4179,152.138 89.0846,153.805 92.5,154.5C 94.2604,156.559 96.5938,157.892 99.5,158.5C 101.153,158.66 102.486,159.326 103.5,160.5C 103.821,162.048 104.821,162.715 106.5,162.5C 107.492,162.328 108.158,162.662 108.5,163.5C 108.5,164.5 108.5,165.5 108.5,166.5C 112.248,167.207 115.914,168.207 119.5,169.5C 119.721,170.735 120.388,171.735 121.5,172.5C 123.99,174.083 126.657,175.083 129.5,175.5C 129.833,175.5 130.167,175.5 130.5,175.5C 130.787,177.121 131.787,178.121 133.5,178.5C 134.5,195.821 134.833,213.154 134.5,230.5C 133.167,230.5 131.833,230.5 130.5,230.5C 130.179,228.952 129.179,228.285 127.5,228.5C 124.904,225.524 121.57,223.524 117.5,222.5C 116.341,220.75 114.674,219.75 112.5,219.5C 111.817,217.824 110.483,217.157 108.5,217.5C 108.179,215.952 107.179,215.285 105.5,215.5C 102.229,212.188 98.2292,209.855 93.5,208.5C 77.1431,199.569 60.9764,190.236 45,180.5C 44.5003,187.826 44.3337,195.159 44.5,202.5C 45.6627,204.982 47.6627,206.316 50.5,206.5C 50.8333,206.5 51.1667,206.5 51.5,206.5C 52.4461,209.313 54.4461,210.646 57.5,210.5C 66.7597,215.107 75.7597,220.107 84.5,225.5C 86.6625,228.42 89.6625,230.087 93.5,230.5C 107.328,237.913 120.995,245.58 134.5,253.5C 134.5,293.833 134.5,334.167 134.5,374.5C 133.167,374.5 131.833,374.5 130.5,374.5C 128.74,372.441 126.406,371.108 123.5,370.5C 121.614,367.052 118.614,365.386 114.5,365.5C 114.179,363.952 113.179,363.285 111.5,363.5C 111.167,363.5 110.833,363.5 110.5,363.5C 110.179,361.952 109.179,361.285 107.5,361.5C 107.279,360.265 106.612,359.265 105.5,358.5C 102.817,357.49 100.151,356.49 97.5,355.5C 96.391,355.443 95.391,355.11 94.5,354.5C 92.6988,350.046 89.3655,348.046 84.5,348.5C 83.9517,345.916 82.285,344.916 79.5,345.5C 79.6309,344.624 79.2975,343.957 78.5,343.5C 75.6675,341.636 72.6675,340.303 69.5,339.5C 69.1667,339.5 68.8333,339.5 68.5,339.5C 67.5539,336.687 65.5539,335.354 62.5,335.5C 60.6142,332.052 57.6142,330.386 53.5,330.5C 49.6654,328.75 45.9988,326.75 42.5,324.5C 40.8827,321.348 38.2161,319.682 34.5,319.5C 32.9112,316.92 30.5779,315.587 27.5,315.5C 26.2562,312.457 23.9229,311.124 20.5,311.5C 19.3933,309.031 17.3933,308.031 14.5,308.5C 13.8333,308.5 13.5,308.167 13.5,307.5C 12.3933,305.031 10.3933,304.031 7.5,304.5C 6.55389,301.687 4.55389,300.354 1.5,300.5C 1.16714,282.821 1.50047,265.154 2.5,247.5C 3.41683,248.127 4.41683,248.461 5.5,248.5C 8.14026,251.122 11.1403,253.455 14.5,255.5C 16.99,257.083 19.6567,258.083 22.5,258.5C 26.8362,260.332 30.8362,262.665 34.5,265.5C 35.4461,268.313 37.4461,269.646 40.5,269.5C 43.3311,270.079 45.6644,271.412 47.5,273.5C 48.733,275.796 50.733,277.13 53.5,277.5C 56.7598,278.774 59.7598,280.44 62.5,282.5C 62.8212,284.048 63.8212,284.715 65.5,284.5C 75.1927,289.766 84.6927,295.433 94,301.5C 94.4996,294.508 94.6663,287.508 94.5,280.5C 93.267,278.204 91.267,276.87 88.5,276.5C 85.2649,272.378 80.9316,270.045 75.5,269.5C 75.2786,268.265 74.6119,267.265 73.5,266.5C 69.8191,264.351 66.1524,262.351 62.5,260.5C 60.3799,257.531 57.3799,256.198 53.5,256.5C 52.2562,253.457 49.9229,252.124 46.5,252.5C 45.8166,250.824 44.4832,250.157 42.5,250.5C 41.7002,248.259 40.0336,247.259 37.5,247.5C 36.5977,245.659 35.2644,244.326 33.5,243.5C 32.8333,243.5 32.1667,243.5 31.5,243.5C 31.2786,242.265 30.6119,241.265 29.5,240.5C 26.2053,238.075 22.5386,236.742 18.5,236.5C 17.1906,233.549 14.8573,232.216 11.5,232.5C 11.1788,230.952 10.1788,230.285 8.5,230.5C 8.16667,230.5 7.83333,230.5 7.5,230.5C 6.55389,227.687 4.55389,226.354 1.5,226.5C 0.511377,185.543 0.178044,144.543 0.5,103.5C 1.5,103.5 2.5,103.5 3.5,103.5 Z"/></g>
<g><path style="opacity:0.518" fill="#393939" d="M 3.5,103.5 C 6.53963,104.68 9.20629,106.347 11.5,108.5C 8.08461,107.805 5.41794,106.138 3.5,103.5 Z"/></g>
<g><path style="opacity:1" fill="#030303" d="M 337.5,158.5 C 336.486,159.674 335.153,160.34 333.5,160.5C 331.473,160.338 329.473,160.505 327.5,161C 326.663,162.011 326.33,163.178 326.5,164.5C 322.653,167.593 318.32,169.926 313.5,171.5C 312.178,171.67 311.011,171.337 310,170.5C 308.388,173.479 305.888,174.812 302.5,174.5C 302.5,175.833 302.5,177.167 302.5,178.5C 298.473,180.513 294.473,182.513 290.5,184.5C 287.784,184.386 285.784,185.386 284.5,187.5C 281.733,187.87 279.733,189.204 278.5,191.5C 277.167,192.167 275.833,192.833 274.5,193.5C 272.821,193.285 271.821,193.952 271.5,195.5C 271.167,195.5 270.833,195.5 270.5,195.5C 268.821,195.285 267.821,195.952 267.5,197.5C 267.167,197.5 266.833,197.5 266.5,197.5C 262.657,198.65 258.99,200.317 255.5,202.5C 254.702,202.957 254.369,203.624 254.5,204.5C 251.028,206.738 247.362,208.738 243.5,210.5C 241.517,210.157 240.183,210.824 239.5,212.5C 235.374,212.391 232.374,214.058 230.5,217.5C 228.821,217.285 227.821,217.952 227.5,219.5C 227.167,219.5 226.833,219.5 226.5,219.5C 224.821,219.285 223.821,219.952 223.5,221.5C 223.158,222.338 222.492,222.672 221.5,222.5C 219.396,222.201 217.396,222.534 215.5,223.5C 213.851,225.333 212.184,227 210.5,228.5C 209.167,228.5 207.833,228.5 206.5,228.5C 205.895,211.331 206.562,194.331 208.5,177.5C 211.578,177.413 213.911,176.08 215.5,173.5C 219.572,172.302 223.572,170.802 227.5,169C 229.141,167.871 230.141,166.371 230.5,164.5C 232.635,162.929 234.968,161.596 237.5,160.5C 239.483,160.843 240.817,160.176 241.5,158.5C 246.165,157.172 250.165,154.839 253.5,151.5C 255.336,149.412 257.669,148.079 260.5,147.5C 262.199,147.66 263.866,147.494 265.5,147C 269.106,144.382 272.439,141.549 275.5,138.5C 276.5,138.5 277.5,138.5 278.5,138.5C 280.5,137.833 281.833,136.5 282.5,134.5C 284.38,134.771 285.713,134.104 286.5,132.5C 288.848,132.408 290.514,131.408 291.5,129.5C 294.331,128.921 296.664,127.588 298.5,125.5C 298.973,124.094 299.973,123.427 301.5,123.5C 303.179,123.715 304.179,123.048 304.5,121.5C 309.537,117.981 314.87,114.981 320.5,112.5C 322.179,112.715 323.179,112.048 323.5,110.5C 326.803,110.31 329.803,109.31 332.5,107.5C 334.011,106.498 335.678,105.831 337.5,105.5C 337.5,123.167 337.5,140.833 337.5,158.5 Z"/></g>
<g><path style="opacity:0.835" fill="#616161" d="M 332.5,105.5 C 332.5,106.167 332.5,106.833 332.5,107.5C 329.803,109.31 326.803,110.31 323.5,110.5C 326.331,108.583 329.331,106.917 332.5,105.5 Z"/></g>
<g><path style="opacity:1" fill="#d22122" d="M 280.5,97.5 C 281.833,97.5 283.167,97.5 284.5,97.5C 279.451,102.038 273.951,106.038 268,109.5C 264.193,108.356 261.027,106.356 258.5,103.5C 260.167,103.5 261.833,103.5 263.5,103.5C 263.5,104.5 263.5,105.5 263.5,106.5C 266.167,106.5 268.833,106.5 271.5,106.5C 272.52,103.157 274.854,101.157 278.5,100.5C 279.612,99.7348 280.279,98.7348 280.5,97.5 Z"/></g>
<g><path style="opacity:0.529" fill="#161616" d="M 336.5,103.5 C 337.5,103.5 338.5,103.5 339.5,103.5C 340.154,122.197 339.487,140.53 337.5,158.5C 337.5,140.833 337.5,123.167 337.5,105.5C 335.678,105.831 334.011,106.498 332.5,107.5C 332.5,106.833 332.5,106.167 332.5,105.5C 333.514,104.326 334.847,103.66 336.5,103.5 Z"/></g>
<g><path style="opacity:1" fill="#494949" d="M 12.5,108.5 C 14.8816,109.351 16.8816,110.684 18.5,112.5C 15.4461,112.646 13.4461,111.313 12.5,108.5 Z"/></g>
<g><path style="opacity:0.996" fill="#707070" d="M 323.5,110.5 C 323.179,112.048 322.179,112.715 320.5,112.5C 321.29,111.599 322.29,110.932 323.5,110.5 Z"/></g>
<g><path style="opacity:0.992" fill="#5a5a5a" d="M 304.5,121.5 C 304.179,123.048 303.179,123.715 301.5,123.5C 302.29,122.599 303.29,121.932 304.5,121.5 Z"/></g>
<g><path style="opacity:1" fill="#373737" d="M 38.5,123.5 C 44.6685,126.08 50.3351,129.414 55.5,133.5C 50.3926,131.447 45.3926,129.114 40.5,126.5C 39.3881,125.735 38.7214,124.735 38.5,123.5 Z"/></g>
<g><path style="opacity:0.976" fill="#575757" d="M 298.5,125.5 C 296.664,127.588 294.331,128.921 291.5,129.5C 293.336,127.412 295.669,126.079 298.5,125.5 Z"/></g>
<g><path style="opacity:0.859" fill="#565655" d="M 291.5,129.5 C 290.514,131.408 288.848,132.408 286.5,132.5C 287.659,130.75 289.326,129.75 291.5,129.5 Z"/></g>
<g><path style="opacity:0.573" fill="#6e6e6e" d="M 286.5,132.5 C 285.713,134.104 284.38,134.771 282.5,134.5C 283.514,133.326 284.847,132.66 286.5,132.5 Z"/></g>
<g><path style="opacity:1" fill="#525554" d="M 58.5,134.5 C 60.7952,135.475 62.7952,136.808 64.5,138.5C 61.4461,138.646 59.4461,137.313 58.5,134.5 Z"/></g>
<g><path style="opacity:0.965" fill="#818181" d="M 278.5,136.5 C 278.5,137.167 278.5,137.833 278.5,138.5C 277.5,138.5 276.5,138.5 275.5,138.5C 276.29,137.599 277.29,136.932 278.5,136.5 Z"/></g>
<g><path style="opacity:1" fill="#353535" d="M 282.5,134.5 C 281.833,136.5 280.5,137.833 278.5,138.5C 278.5,137.833 278.5,137.167 278.5,136.5C 279.605,135.4 280.938,134.733 282.5,134.5 Z"/></g>
<g><path style="opacity:0.898" fill="#050605" d="M 902.5,139.5 C 912.974,137.814 917.807,142.148 917,152.5C 915.421,157.297 912.088,159.964 907,160.5C 897.442,157.629 894.776,151.629 899,142.5C 900.145,141.364 901.312,140.364 902.5,139.5 Z"/></g>
<g><path style="opacity:0.903" fill="#050605" d="M 515.5,140.5 C 521.167,140.5 526.833,140.5 532.5,140.5C 532.333,156.17 532.5,171.837 533,187.5C 539.127,179.705 545.627,172.205 552.5,165C 559.5,164.333 566.5,164.333 573.5,165C 564.833,174.667 556.167,184.333 547.5,194C 557.351,204.35 567.017,214.85 576.5,225.5C 569.858,226.664 563.192,226.831 556.5,226C 548.667,217.5 540.833,209 533,200.5C 532.5,209.16 532.334,217.827 532.5,226.5C 526.833,226.5 521.167,226.5 515.5,226.5C 515.5,197.833 515.5,169.167 515.5,140.5 Z"/></g>
<g><path style="opacity:0.943" fill="#050605" d="M 723.5,140.5 C 728.833,140.5 734.167,140.5 739.5,140.5C 739.5,169.167 739.5,197.833 739.5,226.5C 734.167,226.5 728.833,226.5 723.5,226.5C 723.5,197.833 723.5,169.167 723.5,140.5 Z"/></g>
<g><path style="opacity:0.929" fill="#050605" d="M 388.5,142.5 C 403.833,142.5 419.167,142.5 434.5,142.5C 434.5,147.833 434.5,153.167 434.5,158.5C 429.5,158.5 424.5,158.5 419.5,158.5C 419.5,181.167 419.5,203.833 419.5,226.5C 413.833,226.5 408.167,226.5 402.5,226.5C 402.5,203.833 402.5,181.167 402.5,158.5C 397.833,158.5 393.167,158.5 388.5,158.5C 388.5,153.167 388.5,147.833 388.5,142.5 Z"/></g>
<g><path style="opacity:1" fill="#242424" d="M 275.5,138.5 C 272.439,141.549 269.106,144.382 265.5,147C 263.866,147.494 262.199,147.66 260.5,147.5C 265.233,144.11 270.233,141.11 275.5,138.5 Z"/></g>
<g><path style="opacity:0.882" fill="#5f5f5f" d="M 84.5,149.5 C 87.5396,150.68 90.2063,152.347 92.5,154.5C 89.0846,153.805 86.4179,152.138 84.5,149.5 Z"/></g>
<g><path style="opacity:0.471" fill="#6e6b6a" d="M -0.5,101.5 C 1.15298,101.66 2.48631,102.326 3.5,103.5C 2.5,103.5 1.5,103.5 0.5,103.5C 0.178044,144.543 0.511377,185.543 1.5,226.5C 0.833333,226.5 0.166667,226.5 -0.5,226.5C -0.5,184.833 -0.5,143.167 -0.5,101.5 Z"/></g>
<g><path style="opacity:0.965" fill="#666666" d="M 253.5,151.5 C 250.165,154.839 246.165,157.172 241.5,158.5C 245.164,155.665 249.164,153.332 253.5,151.5 Z"/></g>
<g><path style="opacity:0.384" fill="#616060" d="M 92.5,154.5 C 95.3311,155.079 97.6644,156.412 99.5,158.5C 96.5938,157.892 94.2604,156.559 92.5,154.5 Z"/></g>
<g><path style="opacity:0.937" fill="#585858" d="M 241.5,158.5 C 240.817,160.176 239.483,160.843 237.5,160.5C 238.514,159.326 239.847,158.66 241.5,158.5 Z"/></g>
<g><path style="opacity:0.808" fill="#626262" d="M 103.5,160.5 C 105.027,160.427 106.027,161.094 106.5,162.5C 104.821,162.715 103.821,162.048 103.5,160.5 Z"/></g>
<g><path style="opacity:1" fill="#2c2c2c" d="M 333.5,160.5 C 331.664,162.588 329.331,163.921 326.5,164.5C 326.33,163.178 326.663,162.011 327.5,161C 329.473,160.505 331.473,160.338 333.5,160.5 Z"/></g>
<g><path style="opacity:0.92" fill="#050605" d="M 462.5,163.5 C 490.341,160.349 504.341,172.683 504.5,200.5C 488.163,200.333 471.83,200.5 455.5,201C 459.885,211.145 467.552,214.811 478.5,212C 481.536,210.482 484.536,208.982 487.5,207.5C 491.495,209.164 495.495,210.83 499.5,212.5C 500.521,213.002 500.688,213.668 500,214.5C 490.234,225.531 478.067,229.365 463.5,226C 448.469,221.467 440.469,211.301 439.5,195.5C 440.327,179.705 447.993,169.039 462.5,163.5 Z M 466.5,177.5 C 475.854,175.35 482.854,178.35 487.5,186.5C 477.183,187.666 466.849,187.832 456.5,187C 459.072,182.926 462.405,179.759 466.5,177.5 Z"/></g>
<g><path style="opacity:0.931" fill="#050605" d="M 609.5,163.5 C 621.513,160.879 630.346,164.879 636,175.5C 637.442,192.444 637.942,209.444 637.5,226.5C 632.167,226.5 626.833,226.5 621.5,226.5C 621.909,212.449 621.409,198.449 620,184.5C 618.839,180.167 616.005,178.167 611.5,178.5C 605.805,179.019 601.972,182.019 600,187.5C 598.647,200.458 598.147,213.458 598.5,226.5C 593.167,226.5 587.833,226.5 582.5,226.5C 582.5,205.833 582.5,185.167 582.5,164.5C 587.833,164.5 593.167,164.5 598.5,164.5C 598.34,166.199 598.506,167.866 599,169.5C 602.351,167.079 605.851,165.079 609.5,163.5 Z"/></g>
<g><path style="opacity:0.927" fill="#050605" d="M 671.5,163.5 C 695.311,161.049 708.977,171.549 712.5,195C 709.205,218.954 695.539,229.287 671.5,226C 654.292,220.427 646.459,208.594 648,190.5C 650.724,176.949 658.558,167.949 671.5,163.5 Z M 674.5,178.5 C 692.316,177.828 698.816,186.162 694,203.5C 687.843,211.922 680.01,213.755 670.5,209C 663.236,201.684 662.069,193.517 667,184.5C 669.114,181.879 671.614,179.879 674.5,178.5 Z"/></g>
<g><path style="opacity:0.926" fill="#050605" d="M 772.5,163.5 C 796.311,161.049 809.977,171.549 813.5,195C 811.313,214.521 800.479,225.354 781,227.5C 765.571,226.742 755.238,219.075 750,204.5C 746.048,184.394 753.548,170.728 772.5,163.5 Z M 775.5,178.5 C 793.316,177.828 799.816,186.162 795,203.5C 788.843,211.922 781.01,213.755 771.5,209C 764.236,201.684 763.069,193.517 768,184.5C 770.114,181.879 772.614,179.879 775.5,178.5 Z"/></g>
<g><path style="opacity:0.935" fill="#050605" d="M 842.5,163.5 C 852.233,161.979 861.066,163.979 869,169.5C 869.494,167.866 869.66,166.199 869.5,164.5C 874.833,164.5 880.167,164.5 885.5,164.5C 885.667,184.503 885.5,204.503 885,224.5C 881.574,241.902 870.907,249.902 853,248.5C 838.086,249.633 827.586,243.466 821.5,230C 827.833,229.333 834.167,229.333 840.5,230C 846.721,233.356 853.388,234.356 860.5,233C 867.082,230.769 869.915,226.269 869,219.5C 857.924,228.19 846.424,228.69 834.5,221C 822.607,210.217 819.107,197.051 824,181.5C 827.441,172.557 833.608,166.557 842.5,163.5 Z M 848.5,178.5 C 866.448,177.945 872.948,186.279 868,203.5C 863.036,210.027 856.536,212.193 848.5,210C 839.089,204.657 836.255,196.824 840,186.5C 842.074,182.923 844.907,180.256 848.5,178.5 Z"/></g>
<g><path style="opacity:0.943" fill="#050605" d="M 899.5,164.5 C 904.833,164.5 910.167,164.5 915.5,164.5C 915.5,185.167 915.5,205.833 915.5,226.5C 910.167,226.5 904.833,226.5 899.5,226.5C 899.5,205.833 899.5,185.167 899.5,164.5 Z"/></g>
<g><path style="opacity:0.918" fill="#3b3b3b" d="M 108.5,163.5 C 112.335,165.25 116.001,167.25 119.5,169.5C 115.914,168.207 112.248,167.207 108.5,166.5C 108.5,165.5 108.5,164.5 108.5,163.5 Z"/></g>
<g><path style="opacity:0.984" fill="#303030" d="M 230.5,164.5 C 230.141,166.371 229.141,167.871 227.5,169C 223.572,170.802 219.572,172.302 215.5,173.5C 220.299,170.263 225.299,167.263 230.5,164.5 Z"/></g>
<g><path style="opacity:1" fill="#272727" d="M 313.5,171.5 C 310.039,174.069 306.372,176.403 302.5,178.5C 302.5,177.167 302.5,175.833 302.5,174.5C 305.888,174.812 308.388,173.479 310,170.5C 311.011,171.337 312.178,171.67 313.5,171.5 Z"/></g>
<g><path style="opacity:1" fill="#3b3b3b" d="M 119.5,169.5 C 123.201,171.012 126.534,173.012 129.5,175.5C 126.657,175.083 123.99,174.083 121.5,172.5C 120.388,171.735 119.721,170.735 119.5,169.5 Z"/></g>
<g><path style="opacity:1" fill="#373737" d="M 215.5,173.5 C 213.911,176.08 211.578,177.413 208.5,177.5C 210.336,175.412 212.669,174.079 215.5,173.5 Z"/></g>
<g><path style="opacity:1" fill="#010101" d="M 335.5,182.5 C 337.494,222.153 338.161,262.153 337.5,302.5C 329.5,306.833 321.5,311.167 313.5,315.5C 309.374,315.391 306.374,317.058 304.5,320.5C 293.525,327.325 282.191,333.658 270.5,339.5C 267.538,340.061 264.705,341.061 262,342.5C 256.956,340.875 256.123,341.375 259.5,344C 258.748,344.671 258.414,345.504 258.5,346.5C 252.965,349.767 247.298,352.767 241.5,355.5C 238.361,355.599 236.027,356.932 234.5,359.5C 230.653,362.593 226.32,364.926 221.5,366.5C 217.243,368.131 212.91,369.464 208.5,370.5C 208.5,371.833 208.5,373.167 208.5,374.5C 208.167,374.5 207.833,374.5 207.5,374.5C 206.501,334.003 206.168,293.337 206.5,252.5C 218.347,245.074 230.68,238.407 243.5,232.5C 246.981,231.683 249.981,230.017 252.5,227.5C 265.014,219.741 278.014,212.741 291.5,206.5C 295.065,205.558 298.065,203.891 300.5,201.5C 311.679,194.408 323.346,188.074 335.5,182.5 Z"/></g>
<g><path style="opacity:1" fill="#121212" d="M 337.5,302.5 C 338.161,262.153 337.494,222.153 335.5,182.5C 336.172,181.733 337.005,181.066 338,180.5C 338.831,221.335 338.665,262.002 337.5,302.5 Z"/></g>
<g><path style="opacity:1" fill="#434343" d="M 130.5,175.5 C 132.386,176.361 134.22,177.361 136,178.5C 136.833,196.842 136.666,215.176 135.5,233.5C 133.604,232.725 131.937,231.725 130.5,230.5C 131.833,230.5 133.167,230.5 134.5,230.5C 134.833,213.154 134.5,195.821 133.5,178.5C 131.787,178.121 130.787,177.121 130.5,175.5 Z"/></g>
<g><path style="opacity:1" fill="#404040" d="M 208.5,177.5 C 206.562,194.331 205.895,211.331 206.5,228.5C 207.833,228.5 209.167,228.5 210.5,228.5C 209.152,229.601 207.652,230.601 206,231.5C 205.333,213.833 205.333,196.167 206,178.5C 206.671,177.748 207.504,177.414 208.5,177.5 Z"/></g>
<g><path style="opacity:0.529" fill="#444444" d="M 290.5,184.5 C 288.819,186.008 286.819,187.008 284.5,187.5C 285.784,185.386 287.784,184.386 290.5,184.5 Z"/></g>
<g><path style="opacity:0.384" fill="#6c6b6b" d="M 284.5,187.5 C 282.882,189.316 280.882,190.649 278.5,191.5C 279.733,189.204 281.733,187.87 284.5,187.5 Z"/></g>
<g><path style="opacity:0.024" fill="#545454" d="M 274.5,193.5 C 273.71,194.401 272.71,195.068 271.5,195.5C 271.821,193.952 272.821,193.285 274.5,193.5 Z"/></g>
<g><path style="opacity:0.549" fill="#585858" d="M 270.5,195.5 C 269.71,196.401 268.71,197.068 267.5,197.5C 267.821,195.952 268.821,195.285 270.5,195.5 Z"/></g>
<g><path style="opacity:0.392" fill="#464646" d="M 266.5,197.5 C 262.864,200.323 258.864,202.656 254.5,204.5C 254.369,203.624 254.702,202.957 255.5,202.5C 258.99,200.317 262.657,198.65 266.5,197.5 Z"/></g>
<g><path style="opacity:0.898" fill="#353535" d="M 300.5,201.5 C 298.065,203.891 295.065,205.558 291.5,206.5C 294.008,204.076 297.008,202.41 300.5,201.5 Z"/></g>
<g><path style="opacity:0.682" fill="#606060" d="M 44.5,202.5 C 46.7952,203.475 48.7952,204.808 50.5,206.5C 47.6627,206.316 45.6627,204.982 44.5,202.5 Z"/></g>
<g><path style="opacity:1" fill="#515151" d="M 51.5,206.5 C 53.7952,207.475 55.7952,208.808 57.5,210.5C 54.4461,210.646 52.4461,209.313 51.5,206.5 Z"/></g>
<g><path style="opacity:0.518" fill="#626262" d="M 93.5,208.5 C 98.2292,209.855 102.229,212.188 105.5,215.5C 101.164,213.668 97.1638,211.335 93.5,208.5 Z"/></g>
<g><path style="opacity:0.047" fill="#696969" d="M 243.5,210.5 C 242.486,211.674 241.153,212.34 239.5,212.5C 240.183,210.824 241.517,210.157 243.5,210.5 Z"/></g>
<g><path style="opacity:0.808" fill="#4a4a4a" d="M 239.5,212.5 C 236.76,214.56 233.76,216.226 230.5,217.5C 232.374,214.058 235.374,212.391 239.5,212.5 Z"/></g>
<g><path style="opacity:0.361" fill="#757575" d="M 105.5,215.5 C 107.179,215.285 108.179,215.952 108.5,217.5C 106.973,217.573 105.973,216.906 105.5,215.5 Z"/></g>
<g><path style="opacity:0.141" fill="#565555" d="M 108.5,217.5 C 110.483,217.157 111.817,217.824 112.5,219.5C 110.847,219.34 109.514,218.674 108.5,217.5 Z"/></g>
<g><path style="opacity:0.141" fill="#525252" d="M 230.5,217.5 C 229.71,218.401 228.71,219.068 227.5,219.5C 227.821,217.952 228.821,217.285 230.5,217.5 Z"/></g>
<g><path style="opacity:0.937" fill="#565656" d="M 112.5,219.5 C 114.674,219.75 116.341,220.75 117.5,222.5C 115.326,222.25 113.659,221.25 112.5,219.5 Z"/></g>
<g><path style="opacity:0.318" fill="#4c4c4c" d="M 226.5,219.5 C 225.71,220.401 224.71,221.068 223.5,221.5C 223.821,219.952 224.821,219.285 226.5,219.5 Z"/></g>
<g><path style="opacity:0.373" fill="#6b6b6b" d="M 117.5,222.5 C 121.57,223.524 124.904,225.524 127.5,228.5C 123.827,227 120.494,225 117.5,222.5 Z"/></g>
<g><path style="opacity:0.984" fill="#373737" d="M 84.5,225.5 C 87.6963,226.929 90.6963,228.595 93.5,230.5C 89.6625,230.087 86.6625,228.42 84.5,225.5 Z"/></g>
<g><path style="opacity:0.035" fill="#404040" d="M 221.5,222.5 C 218.001,224.75 214.335,226.75 210.5,228.5C 212.184,227 213.851,225.333 215.5,223.5C 217.396,222.534 219.396,222.201 221.5,222.5 Z"/></g>
<g><path style="opacity:0.098" fill="#646363" d="M 1.5,226.5 C 4.55389,226.354 6.55389,227.687 7.5,230.5C 5.20475,229.525 3.20475,228.192 1.5,226.5 Z"/></g>
<g><path style="opacity:0.22" fill="#737373" d="M 127.5,228.5 C 129.179,228.285 130.179,228.952 130.5,230.5C 129.29,230.068 128.29,229.401 127.5,228.5 Z"/></g>
<g><path style="opacity:0.937" fill="#2a2a2a" d="M 252.5,227.5 C 249.981,230.017 246.981,231.683 243.5,232.5C 246.008,230.076 249.008,228.41 252.5,227.5 Z"/></g>
<g><path style="opacity:0.349" fill="#676666" d="M 8.5,230.5 C 10.1788,230.285 11.1788,230.952 11.5,232.5C 9.97306,232.573 8.97306,231.906 8.5,230.5 Z"/></g>
<g><path style="opacity:0.384" fill="#6a6868" d="M 11.5,232.5 C 14.8573,232.216 17.1906,233.549 18.5,236.5C 15.9959,235.416 13.6626,234.083 11.5,232.5 Z"/></g>
<g><path style="opacity:1" fill="#5b5b5b" d="M 18.5,236.5 C 22.5386,236.742 26.2053,238.075 29.5,240.5C 30.6119,241.265 31.2786,242.265 31.5,243.5C 31.1667,243.5 30.8333,243.5 30.5,243.5C 26.1362,241.656 22.1362,239.323 18.5,236.5 Z"/></g>
<g><path style="opacity:0.098" fill="#a8a6a5" d="M 30.5,243.5 C 30.8333,243.5 31.1667,243.5 31.5,243.5C 32.1667,243.5 32.8333,243.5 33.5,243.5C 33.5,244.167 33.5,244.833 33.5,245.5C 32.2905,245.068 31.2905,244.401 30.5,243.5 Z"/></g>
<g><path style="opacity:0.753" fill="#787776" d="M 33.5,243.5 C 35.2644,244.326 36.5977,245.659 37.5,247.5C 35.9382,247.267 34.6049,246.6 33.5,245.5C 33.5,244.833 33.5,244.167 33.5,243.5 Z"/></g>
<g><path style="opacity:0.482" fill="#737373" d="M 37.5,247.5 C 40.0336,247.259 41.7002,248.259 42.5,250.5C 40.6316,249.737 38.9649,248.737 37.5,247.5 Z"/></g>
<g><path style="opacity:1" fill="#414141" d="M 5.5,248.5 C 11.6685,251.08 17.3351,254.414 22.5,258.5C 19.6567,258.083 16.99,257.083 14.5,255.5C 11.1403,253.455 8.14026,251.122 5.5,248.5 Z"/></g>
<g><path style="opacity:1" fill="#656565" d="M 42.5,250.5 C 44.4832,250.157 45.8166,250.824 46.5,252.5C 44.847,252.34 43.5137,251.674 42.5,250.5 Z"/></g>
<g><path style="opacity:1" fill="#494949" d="M 46.5,252.5 C 49.9229,252.124 52.2562,253.457 53.5,256.5C 50.6689,255.921 48.3356,254.588 46.5,252.5 Z"/></g>
<g><path style="opacity:0.529" fill="#363636" d="M 134.5,253.5 C 135.831,294.669 135.831,336.002 134.5,377.5C 132.739,376.965 131.406,375.965 130.5,374.5C 131.833,374.5 133.167,374.5 134.5,374.5C 134.5,334.167 134.5,293.833 134.5,253.5 Z"/></g>
<g><path style="opacity:1" fill="#404040" d="M 206.5,252.5 C 206.168,293.337 206.501,334.003 207.5,374.5C 207.44,375.043 207.107,375.376 206.5,375.5C 205.169,334.335 205.169,293.335 206.5,252.5 Z"/></g>
<g><path style="opacity:1" fill="#393939" d="M 53.5,256.5 C 57.3799,256.198 60.3799,257.531 62.5,260.5C 61.8333,260.5 61.1667,260.5 60.5,260.5C 59.8166,258.824 58.4832,258.157 56.5,258.5C 55.2905,258.068 54.2905,257.401 53.5,256.5 Z"/></g>
<g><path style="opacity:0.471" fill="#df8179" d="M 145.5,68.5 C 146.167,70.1667 146.833,71.8333 147.5,73.5C 147.5,176.5 147.5,279.5 147.5,382.5C 145.502,278.172 144.835,173.505 145.5,68.5 Z"/></g>
<g><path style="opacity:1" fill="#2c2c2c" d="M 5.5,248.5 C 4.41683,248.461 3.41683,248.127 2.5,247.5C 1.50047,265.154 1.16714,282.821 1.5,300.5C 4.55389,300.354 6.55389,301.687 7.5,304.5C 5.52656,303.513 3.52656,302.513 1.5,301.5C 0.166667,282.833 0.166667,264.167 1.5,245.5C 3.26099,246.035 4.59433,247.035 5.5,248.5 Z"/></g>
<g><path style="opacity:1" fill="#d71a1f" d="M 147.5,73.5 C 148.725,74.1522 149.392,75.3189 149.5,77C 148.174,176.322 148.174,275.488 149.5,374.5C 149.187,378.413 149.853,382.079 151.5,385.5C 149.77,384.974 148.436,383.974 147.5,382.5C 147.5,279.5 147.5,176.5 147.5,73.5 Z"/></g>
<g><path style="opacity:1" fill="#db0f15" d="M 151.5,73.5 C 149.537,173.787 148.87,274.12 149.5,374.5C 148.174,275.488 148.174,176.322 149.5,77C 149.392,75.3189 148.725,74.1522 147.5,73.5C 148.01,70.6122 147.344,68.2789 145.5,66.5C 145.631,65.7611 145.464,65.0944 145,64.5C 130.2,74.8122 115.034,84.4789 99.5,93.5C 99.5,91.8333 99.5,90.1667 99.5,88.5C 104.169,87.0533 108.835,85.3866 113.5,83.5C 115.122,82.0672 116.455,80.4005 117.5,78.5C 123.109,77.3935 127.109,74.2269 129.5,69C 133.189,68.1484 136.856,67.3151 140.5,66.5C 140.5,65.1667 140.5,63.8333 140.5,62.5C 147.917,62.2923 151.583,65.9589 151.5,73.5 Z"/></g>
<g><path style="opacity:1" fill="#f2595c" d="M 145.5,66.5 C 147.344,68.2789 148.01,70.6122 147.5,73.5C 146.833,71.8333 146.167,70.1667 145.5,68.5C 145.5,67.8333 145.5,67.1667 145.5,66.5 Z"/></g>
<g><path style="opacity:0.078" fill="#a8a5a5" d="M 56.5,258.5 C 58.4832,258.157 59.8166,258.824 60.5,260.5C 58.847,260.34 57.5137,259.674 56.5,258.5 Z"/></g>
<g><path style="opacity:0.953" fill="#737272" d="M 60.5,260.5 C 61.1667,260.5 61.8333,260.5 62.5,260.5C 66.1524,262.351 69.8191,264.351 73.5,266.5C 74.6119,267.265 75.2786,268.265 75.5,269.5C 70.2156,266.863 65.2156,263.863 60.5,260.5 Z"/></g>
<g><path style="opacity:1" fill="#373737" d="M 34.5,265.5 C 36.8816,266.351 38.8816,267.684 40.5,269.5C 37.4461,269.646 35.4461,268.313 34.5,265.5 Z"/></g>
<g><path style="opacity:1" fill="#626262" d="M 75.5,269.5 C 80.9316,270.045 85.2649,272.378 88.5,276.5C 83.9098,274.561 79.5765,272.227 75.5,269.5 Z"/></g>
<g><path style="opacity:1" fill="#3a3a3a" d="M 47.5,273.5 C 49.8816,274.351 51.8816,275.684 53.5,277.5C 50.733,277.13 48.733,275.796 47.5,273.5 Z"/></g>
<g><path style="opacity:0.898" fill="#050605" d="M 842.5,276.5 C 852.974,274.814 857.807,279.148 857,289.5C 855.421,294.297 852.088,296.964 847,297.5C 837.442,294.629 834.776,288.629 839,279.5C 840.145,278.364 841.312,277.364 842.5,276.5 Z"/></g>
<g><path style="opacity:0.953" fill="#4a4a4a" d="M 88.5,276.5 C 91.267,276.87 93.267,278.204 94.5,280.5C 92.1184,279.649 90.1184,278.316 88.5,276.5 Z"/></g>
<g><path style="opacity:0.937" fill="#050605" d="M 497.5,277.5 C 502.833,277.5 508.167,277.5 513.5,277.5C 513.5,285.5 513.5,293.5 513.5,301.5C 516.5,301.5 519.5,301.5 522.5,301.5C 522.5,306.167 522.5,310.833 522.5,315.5C 519.5,315.5 516.5,315.5 513.5,315.5C 513.5,331.5 513.5,347.5 513.5,363.5C 508.167,363.5 502.833,363.5 497.5,363.5C 497.5,347.5 497.5,331.5 497.5,315.5C 494.833,315.5 492.167,315.5 489.5,315.5C 489.5,310.833 489.5,306.167 489.5,301.5C 492.167,301.5 494.833,301.5 497.5,301.5C 497.5,293.5 497.5,285.5 497.5,277.5 Z"/></g>
<g><path style="opacity:0.962" fill="#050605" d="M 395.5,279.5 C 400.833,279.5 406.167,279.5 411.5,279.5C 411.5,307.5 411.5,335.5 411.5,363.5C 406.167,363.5 400.833,363.5 395.5,363.5C 395.5,335.5 395.5,307.5 395.5,279.5 Z"/></g>
<g><path style="opacity:0.849" fill="#595959" d="M 62.5,282.5 C 63.7095,282.932 64.7095,283.599 65.5,284.5C 63.8212,284.715 62.8212,284.048 62.5,282.5 Z"/></g>
<g><path style="opacity:0.931" fill="#050605" d="M 453.5,300.5 C 465.513,297.879 474.346,301.879 480,312.5C 481.442,329.444 481.942,346.444 481.5,363.5C 476.167,363.5 470.833,363.5 465.5,363.5C 465.909,349.449 465.409,335.449 464,321.5C 462.839,317.167 460.005,315.167 455.5,315.5C 449.805,316.019 445.972,319.019 444,324.5C 442.647,337.458 442.147,350.458 442.5,363.5C 437.167,363.5 431.833,363.5 426.5,363.5C 426.5,342.833 426.5,322.167 426.5,301.5C 431.833,301.5 437.167,301.5 442.5,301.5C 442.34,303.199 442.506,304.866 443,306.5C 446.351,304.079 449.851,302.079 453.5,300.5 Z"/></g>
<g><path style="opacity:0.92" fill="#050605" d="M 549.5,300.5 C 577.341,297.349 591.341,309.683 591.5,337.5C 575.163,337.333 558.83,337.5 542.5,338C 546.885,348.145 554.552,351.811 565.5,349C 568.536,347.482 571.536,345.982 574.5,344.5C 578.495,346.164 582.495,347.83 586.5,349.5C 587.521,350.002 587.688,350.668 587,351.5C 575.686,363.48 562.186,366.98 546.5,362C 529.991,353.852 523.825,340.685 528,322.5C 531.35,311.318 538.517,303.984 549.5,300.5 Z M 553.5,314.5 C 562.854,312.35 569.854,315.35 574.5,323.5C 564.183,324.666 553.849,324.832 543.5,324C 546.072,319.926 549.405,316.759 553.5,314.5 Z"/></g>
<g><path style="opacity:0.935" fill="#050605" d="M 620.5,300.5 C 630.233,298.979 639.066,300.979 647,306.5C 647.494,304.866 647.66,303.199 647.5,301.5C 652.833,301.5 658.167,301.5 663.5,301.5C 663.667,321.503 663.5,341.503 663,361.5C 659.574,378.902 648.907,386.902 631,385.5C 616.086,386.633 605.586,380.466 599.5,367C 605.833,366.333 612.167,366.333 618.5,367C 624.721,370.356 631.388,371.356 638.5,370C 645.082,367.769 647.915,363.269 647,356.5C 635.924,365.19 624.424,365.69 612.5,358C 600.607,347.217 597.107,334.051 602,318.5C 605.441,309.557 611.608,303.557 620.5,300.5 Z M 626.5,315.5 C 644.448,314.945 650.948,323.279 646,340.5C 641.036,347.027 634.536,349.193 626.5,347C 617.089,341.657 614.255,333.824 618,323.5C 620.074,319.923 622.907,317.256 626.5,315.5 Z"/></g>
<g><path style="opacity:0.927" fill="#050605" d="M 696.5,300.5 C 700.182,300.335 703.848,300.501 707.5,301C 708.022,301.561 708.355,302.228 708.5,303C 706.929,307.216 705.262,311.383 703.5,315.5C 698.629,313.335 695.129,314.668 693,319.5C 691.568,334.108 691.068,348.775 691.5,363.5C 686.167,363.5 680.833,363.5 675.5,363.5C 675.5,342.833 675.5,322.167 675.5,301.5C 680.167,301.5 684.833,301.5 689.5,301.5C 689.343,302.873 689.51,304.207 690,305.5C 691.965,303.45 694.132,301.783 696.5,300.5 Z"/></g>
<g><path style="opacity:0.935" fill="#050605" d="M 732.5,300.5 C 742.233,298.979 751.066,300.979 759,306.5C 759.494,304.866 759.66,303.199 759.5,301.5C 764.833,301.5 770.167,301.5 775.5,301.5C 775.5,322.167 775.5,342.833 775.5,363.5C 770.167,363.5 764.833,363.5 759.5,363.5C 759.662,361.473 759.495,359.473 759,357.5C 750.339,363.685 740.839,365.185 730.5,362C 718.109,355.924 711.776,345.924 711.5,332C 711.689,316.747 718.689,306.247 732.5,300.5 Z M 738.5,315.5 C 755.077,314.574 761.91,322.24 759,338.5C 754.154,348.168 746.654,351.001 736.5,347C 728.533,340.915 726.367,333.082 730,323.5C 732.074,319.923 734.907,317.256 738.5,315.5 Z"/></g>
<g><path style="opacity:0.913" fill="#050605" d="M 800.5,300.5 C 808.206,299.665 815.539,300.831 822.5,304C 824.888,306.05 826.888,308.384 828.5,311C 825.716,314.787 822.549,318.287 819,321.5C 815.529,317.011 811.029,315.178 805.5,316C 802.833,317.667 802.833,319.333 805.5,321C 811.325,323.745 816.992,326.745 822.5,330C 830.021,337.343 831.521,345.843 827,355.5C 819.368,363.115 810.202,365.615 799.5,363C 793.873,361.199 789.206,358.033 785.5,353.5C 788.532,349.634 792.032,346.301 796,343.5C 800.753,347.638 806.253,349.138 812.5,348C 813.574,347.261 814.241,346.261 814.5,345C 813.561,343.056 812.227,341.389 810.5,340C 801.24,337.055 794.073,331.555 789,323.5C 786.491,312.517 790.325,304.85 800.5,300.5 Z"/></g>
<g><path style="opacity:0.943" fill="#050605" d="M 839.5,301.5 C 844.833,301.5 850.167,301.5 855.5,301.5C 855.5,322.167 855.5,342.833 855.5,363.5C 850.167,363.5 844.833,363.5 839.5,363.5C 839.5,342.833 839.5,322.167 839.5,301.5 Z"/></g>
<g><path style="opacity:1" fill="#3c3c3c" d="M 7.5,304.5 C 10.3933,304.031 12.3933,305.031 13.5,307.5C 11.1815,307.008 9.18147,306.008 7.5,304.5 Z"/></g>
<g><path style="opacity:1" fill="#585858" d="M 14.5,308.5 C 17.3933,308.031 19.3933,309.031 20.5,311.5C 18.1815,311.008 16.1815,310.008 14.5,308.5 Z"/></g>
<g><path style="opacity:1" fill="#4a4a4a" d="M 20.5,311.5 C 23.9229,311.124 26.2562,312.457 27.5,315.5C 24.6689,314.921 22.3356,313.588 20.5,311.5 Z"/></g>
<g><path style="opacity:0.141" fill="#6e6d6d" d="M 27.5,315.5 C 30.5779,315.587 32.9112,316.92 34.5,319.5C 31.6689,318.921 29.3356,317.588 27.5,315.5 Z"/></g>
<g><path style="opacity:0.718" fill="#333333" d="M 313.5,315.5 C 310.696,317.405 307.696,319.071 304.5,320.5C 306.374,317.058 309.374,315.391 313.5,315.5 Z"/></g>
<g><path style="opacity:1" fill="#3d3d3d" d="M 34.5,319.5 C 38.2161,319.682 40.8827,321.348 42.5,324.5C 39.4604,323.32 36.7937,321.653 34.5,319.5 Z"/></g>
<g><path style="opacity:0.718" fill="#545353" d="M 53.5,330.5 C 57.6142,330.386 60.6142,332.052 62.5,335.5C 59.0078,334.59 56.0078,332.924 53.5,330.5 Z"/></g>
<g><path style="opacity:0.165" fill="#606060" d="M 62.5,335.5 C 65.5539,335.354 67.5539,336.687 68.5,339.5C 66.1184,338.649 64.1184,337.316 62.5,335.5 Z"/></g>
<g><path style="opacity:0.584" fill="#5f5f5f" d="M 69.5,339.5 C 72.6675,340.303 75.6675,341.636 78.5,343.5C 79.2975,343.957 79.6309,344.624 79.5,345.5C 75.827,344 72.4937,342 69.5,339.5 Z"/></g>
<g><path style="opacity:1" fill="#252525" d="M 270.5,339.5 C 266.535,341.818 262.535,344.152 258.5,346.5C 258.414,345.504 258.748,344.671 259.5,344C 256.123,341.375 256.956,340.875 262,342.5C 264.705,341.061 267.538,340.061 270.5,339.5 Z"/></g>
<g><path style="opacity:0.318" fill="#4d4d4d" d="M 79.5,345.5 C 82.285,344.916 83.9517,345.916 84.5,348.5C 82.6316,347.737 80.9649,346.737 79.5,345.5 Z"/></g>
<g><path style="opacity:0.996" fill="#292929" d="M 84.5,348.5 C 89.3655,348.046 92.6988,350.046 94.5,354.5C 91.1309,352.485 87.7976,350.485 84.5,348.5 Z"/></g>
<g><path style="opacity:0.882" fill="#494949" d="M 241.5,355.5 C 239.664,357.588 237.331,358.921 234.5,359.5C 236.027,356.932 238.361,355.599 241.5,355.5 Z"/></g>
<g><path style="opacity:0.482" fill="#707070" d="M 97.5,355.5 C 100.151,356.49 102.817,357.49 105.5,358.5C 106.612,359.265 107.279,360.265 107.5,361.5C 103.827,360 100.494,358 97.5,355.5 Z"/></g>
<g><path style="opacity:0.192" fill="#6e6e6e" d="M 107.5,361.5 C 109.179,361.285 110.179,361.952 110.5,363.5C 109.29,363.068 108.29,362.401 107.5,361.5 Z"/></g>
<g><path style="opacity:0.482" fill="#585858" d="M 111.5,363.5 C 113.179,363.285 114.179,363.952 114.5,365.5C 112.973,365.573 111.973,364.906 111.5,363.5 Z"/></g>
<g><path style="opacity:1" fill="#404040" d="M 114.5,365.5 C 118.614,365.386 121.614,367.052 123.5,370.5C 120.008,369.59 117.008,367.924 114.5,365.5 Z"/></g>
<g><path style="opacity:1" fill="#252525" d="M 221.5,366.5 C 217.37,369.403 213.037,372.07 208.5,374.5C 208.5,373.167 208.5,371.833 208.5,370.5C 212.91,369.464 217.243,368.131 221.5,366.5 Z"/></g>
<g><path style="opacity:0.11" fill="#565656" d="M 123.5,370.5 C 126.406,371.108 128.74,372.441 130.5,374.5C 127.669,373.921 125.336,372.588 123.5,370.5 Z"/></g>
<g><path style="opacity:0.882" fill="#ed424d" d="M 191.5,383.5 C 192.167,383.5 192.833,383.5 193.5,383.5C 191.664,385.588 189.331,386.921 186.5,387.5C 187.656,385.613 189.323,384.279 191.5,383.5 Z"/></g>
<g><path style="opacity:1" fill="#d42a2e" d="M 152.5,385.5 C 154.5,385.5 156.5,385.5 158.5,385.5C 162.209,392.01 167.876,394.343 175.5,392.5C 172.877,394.265 169.877,394.932 166.5,394.5C 161.457,391.985 156.79,388.985 152.5,385.5 Z"/></g>
<g><path style="opacity:0.451" fill="#e26667" d="M 186.5,387.5 C 181.833,390.5 177.167,393.5 172.5,396.5C 171.167,396.5 169.833,396.5 168.5,396.5C 167.833,395.833 167.167,395.167 166.5,394.5C 169.877,394.932 172.877,394.265 175.5,392.5C 179.031,390.568 182.698,388.902 186.5,387.5 Z"/></g>
</svg>
