<svg width="600" height="506" viewBox="0 0 600 506" fill="none" xmlns="http://www.w3.org/2000/svg" xmlns:xlink="http://www.w3.org/1999/xlink">
<rect width="599.5" height="506" fill="url(#pattern0)"/>
<defs>
<pattern id="pattern0" patternContentUnits="objectBoundingBox" width="1" height="1">
<use xlink:href="#image0_19_2054" transform="translate(-0.0416094 -0.0689894) scale(0.00146165 0.00166615)"/>
</pattern>
<path d="M650 467.837H0V468.097H650V467.837Z" fill="#EBEBEB"/>
<path d="M584.87 488.777H541.84V489.038H584.87V488.777Z" fill="#EBEBEB"/>
<path d="M430.56 492.419H419.25V492.679H430.56V492.419Z" fill="#EBEBEB"/>
<path d="M540.54 476.811H515.58V477.072H540.54V476.811Z" fill="#EBEBEB"/>
<path d="M124.41 478.892H68.25V479.153H124.41V478.892Z" fill="#EBEBEB"/>
<path d="M144.17 478.892H135.98V479.153H144.17V478.892Z" fill="#EBEBEB"/>
<path d="M292.76 484.485H170.95V484.745H292.76V484.485Z" fill="#EBEBEB"/>
<path d="M308.1 409.827H57.07C53.04 409.827 49.66 406.446 49.66 402.414V49.4138C49.66 45.3817 53.04 42 57.07 42H308.1C312.13 42 315.51 45.3817 315.51 49.4138V402.414C315.51 406.576 312.26 409.827 308.1 409.827ZM57.07 42.2601C53.17 42.2601 49.92 45.3817 49.92 49.4138V402.414C49.92 406.316 53.04 409.567 57.07 409.567H308.1C312 409.567 315.25 406.446 315.25 402.414V49.4138C315.25 45.5118 312.13 42.2601 308.1 42.2601H57.07Z" fill="#EBEBEB"/>
<path d="M589.29 409.827H338.26C334.23 409.827 330.85 406.446 330.85 402.414V49.4138C330.85 45.3817 334.23 42 338.26 42H589.29C593.32 42 596.7 45.3817 596.7 49.4138V402.414C596.7 406.576 593.45 409.827 589.29 409.827ZM338.26 42.2601C334.36 42.2601 331.11 45.3817 331.11 49.4138V402.414C331.11 406.316 334.23 409.567 338.26 409.567H589.29C593.19 409.567 596.44 406.446 596.44 402.414V49.4138C596.44 45.5118 593.32 42.2601 589.29 42.2601H338.26Z" fill="#EBEBEB"/>
<path d="M325 526.627C464.214 526.627 577.07 520.046 577.07 511.929C577.07 503.812 464.214 497.232 325 497.232C185.786 497.232 72.93 503.812 72.93 511.929C72.93 520.046 185.786 526.627 325 526.627Z" fill="#F5F5F5"/>
<path d="M577.2 91.0349V352.728C577.2 358.971 571.74 364.564 565.5 364.564H189.02C182.78 364.564 178.1 358.971 178.1 352.728V91.0349C178.1 84.7918 182.78 79.8492 189.02 79.8492H565.5C571.74 79.7192 577.2 84.6617 577.2 91.0349Z" fill="#E52A37"/>
<path opacity="0.1" d="M577.2 123.552V352.728C577.2 358.971 571.74 364.564 565.5 364.564H189.02C182.78 364.564 178.1 358.971 178.1 352.728V263.503C211.25 199.77 290.16 189.495 382.59 226.694C513.5 279.501 569.27 207.965 577.2 123.552Z" fill="white"/>
<path opacity="0.2" d="M474.37 334.779H283.4C279.76 334.779 276.9 331.788 276.9 328.276C276.9 324.634 279.89 321.772 283.4 321.772H474.37C478.01 321.772 480.87 324.764 480.87 328.276C481 331.788 478.01 334.779 474.37 334.779Z" fill="black"/>
<path d="M283.4 333.348C280.54 333.348 278.2 331.007 278.2 328.146C278.2 325.284 280.54 322.943 283.4 322.943H396.24C399.1 322.943 401.44 325.284 401.44 328.146C401.44 331.007 399.1 333.348 396.24 333.348H283.4Z" fill="#EF9CA4"/>
<path opacity="0.7" d="M283.4 333.348C280.54 333.348 278.2 331.007 278.2 328.146C278.2 325.284 280.54 322.943 283.4 322.943H396.24C399.1 322.943 401.44 325.284 401.44 328.146C401.44 331.007 399.1 333.348 396.24 333.348H283.4Z" fill="white"/>
<path d="M207.87 344.144C219.96 353.899 215.8 400.332 218.01 407.486C220.22 414.64 229.97 420.493 229.97 420.493L216.32 436.361C216.32 436.361 205.01 434.41 196.3 415.81C187.85 397.471 207.87 344.144 207.87 344.144Z" fill="#263238"/>
<path opacity="0.2" d="M207.87 344.144C219.96 353.899 215.8 400.332 218.01 407.486C220.22 414.64 229.97 420.493 229.97 420.493L216.32 436.361C216.32 436.361 205.01 434.41 196.3 415.81C187.85 397.471 207.87 344.144 207.87 344.144Z" fill="black"/>
<path d="M195 446.246C195 446.246 282.1 421.923 293.02 452.489C303.94 483.055 224.9 507.377 181.22 508.938C137.41 510.368 119.6 479.803 132.47 450.538L195 446.246Z" fill="#E52A37"/>
<path opacity="0.2" d="M195 446.246C195 446.246 282.1 421.923 293.02 452.489C303.94 483.055 224.9 507.377 181.22 508.938C137.41 510.368 119.6 479.803 132.47 450.538L195 446.246Z" fill="black"/>
<path d="M280.41 495.671C280.28 495.671 280.15 495.671 280.15 495.671C280.02 495.671 280.02 495.541 280.02 495.411C280.15 494.891 281.58 490.728 283.14 490.338C283.4 490.208 283.79 490.338 284.05 490.598C284.44 490.989 284.7 491.509 284.57 492.029C284.31 492.81 283.79 493.46 283.14 493.98C282.23 494.63 281.32 495.281 280.41 495.671ZM280.8 494.891C282.1 494.24 283.27 493.2 283.92 491.899C284.05 491.509 283.79 491.119 283.53 490.989C283.4 490.859 283.27 490.859 283.14 490.859C283.01 490.859 282.88 490.989 282.75 491.119C281.84 492.159 281.19 493.46 280.8 494.891Z" fill="#407BFF"/>
<path d="M280.28 495.801C280.15 495.801 280.02 495.801 280.02 495.671C279.89 495.541 277.81 492.94 278.2 491.249C278.33 490.859 278.59 490.468 278.85 490.208C279.11 489.948 279.63 489.818 280.02 490.078C281.06 490.859 280.93 494.24 280.41 495.541V495.671C280.41 495.801 280.28 495.801 280.28 495.801ZM279.11 490.728C278.98 490.859 278.85 491.119 278.72 491.379C278.46 492.419 279.5 494.11 280.02 494.891C280.41 493.46 280.28 490.989 279.63 490.598C279.63 490.598 279.5 490.468 279.11 490.728Z" fill="#407BFF"/>
<path d="M191.62 511.149C191.62 511.019 191.75 510.889 191.88 510.889C192.01 510.889 192.14 510.889 192.14 511.019C192.4 511.409 194.35 515.441 193.7 516.742C193.57 517.002 193.18 517.132 192.92 517.132C192.4 517.132 191.88 517.002 191.49 516.482C191.1 515.701 190.97 514.921 191.1 514.14C191.1 513.23 191.36 512.189 191.62 511.149ZM191.88 512.059C191.36 513.49 191.36 515.051 191.88 516.352C192.14 516.612 192.4 516.872 192.79 516.742C192.92 516.742 193.05 516.742 193.05 516.612C193.05 516.482 193.18 516.352 193.18 516.221C193.05 514.791 192.66 513.36 191.88 512.059Z" fill="#407BFF"/>
<path d="M212.68 481.754L197.34 493.07L189.93 498.532L194.74 506.987L202.28 502.825L220.61 492.81L212.68 481.754Z" fill="#EBB376"/>
<path d="M197.08 506.727L192.4 496.451C192.14 495.931 191.49 495.671 190.84 495.931L185.77 498.402C185.77 498.402 178.75 501.264 177.97 503.475C175.37 510.108 185.12 533.13 188.11 533.13C189.28 533.13 189.93 531.439 190.06 530.269C190.58 526.757 190.58 518.042 191.1 515.181C191.62 511.799 195 509.198 196.56 508.157C197.21 507.767 197.34 507.247 197.08 506.727Z" fill="#263238"/>
<path d="M191.62 511.149C191.62 511.019 191.75 511.019 191.88 511.019C192.01 511.019 195.26 511.409 196.3 512.84C196.56 513.23 196.69 513.62 196.56 514.14C196.56 514.531 196.3 514.921 195.78 515.051C194.48 515.311 192.14 512.84 191.62 511.539L191.49 511.409C191.62 511.149 191.62 511.149 191.62 511.149ZM196.04 513.75C196.04 513.49 196.04 513.23 195.91 513.1C195.26 512.189 193.44 511.799 192.4 511.669C193.18 512.97 195 514.531 195.78 514.401C195.78 514.27 195.91 514.27 196.04 513.75Z" fill="#407BFF"/>
<path opacity="0.2" d="M212.68 481.754L197.34 493.07L202.28 502.825L220.61 492.81L212.68 481.754Z" fill="black"/>
<path d="M205.79 503.475L210.86 502.304L202.41 486.306L197.73 491.119L205.79 503.475Z" fill="#407BFF"/>
<path opacity="0.6" d="M205.79 503.475L210.86 502.304L202.41 486.306L197.73 491.119L205.79 503.475Z" fill="white"/>
<path d="M244.66 501.264L263.51 504.385L272.48 505.816L275.08 496.451L266.89 493.98L247 487.867L244.66 501.264Z" fill="#EBB376"/>
<path d="M273.26 494.891L269.23 505.426C268.97 506.076 269.36 506.727 269.88 506.857L275.08 508.678C275.08 508.678 281.97 511.669 284.18 510.759C290.68 507.897 300.3 485.006 298.22 482.794C297.44 482.014 295.75 482.794 294.84 483.445C291.98 485.526 285.74 491.639 283.27 493.33C280.54 495.281 276.25 494.761 274.43 494.24C274.04 494.11 273.52 494.5 273.26 494.891Z" fill="#263238"/>
<path opacity="0.2" d="M244.66 501.264L263.51 504.385L266.89 493.98L247 487.867L244.66 501.264Z" fill="black"/>
<path d="M263.77 492.029C263.77 492.029 185.38 445.726 158.86 447.026C132.34 448.327 130 474.6 140.92 489.298C151.84 503.995 172.12 507.507 172.12 507.507C172.12 507.507 158.34 487.997 160.29 482.534C162.24 477.071 169.91 495.411 169.91 495.411C169.91 495.411 218.4 501.784 260.78 505.296L263.77 492.029Z" fill="#E52A37"/>
<path d="M264.94 490.859L260.65 487.867L255.06 505.036H261.69L264.94 490.859Z" fill="#407BFF"/>
<path opacity="0.6" d="M264.94 490.859L260.65 487.867L255.06 505.036H261.69L264.94 490.859Z" fill="white"/>
<path d="M205.27 454.31C191.1 426.996 195.65 385.505 207.87 344.144C199.29 336.99 165.1 332.178 138.97 339.722C138.97 339.722 122.46 401.113 124.41 468.227L205.27 454.31Z" fill="#263238"/>
<path d="M175.11 350.907C163.67 350.907 156.26 338.941 156.26 338.941C171.21 333.738 171.21 317.87 171.21 317.87L176.93 323.463L185.12 331.527C178.36 336.34 181.48 340.502 183.69 342.453C184.47 343.103 185.12 343.493 185.12 343.493C185.12 343.493 186.55 350.907 175.11 350.907Z" fill="#EBB376"/>
<path opacity="0.2" d="M183.82 342.453C169.78 344.014 170.82 323.073 170.82 323.073C173.03 323.073 175.11 323.203 177.06 323.593L185.25 331.657C178.49 336.34 181.74 340.502 183.82 342.453Z" fill="black"/>
<path d="M194.74 302.132C189.41 304.344 190.45 310.066 199.29 320.602C204.75 315.919 207.61 305.384 204.75 301.872C202.02 298.621 199.42 300.311 194.74 302.132Z" fill="#263238"/>
<path d="M202.67 325.544C202.15 327.105 201.63 328.406 200.98 329.706C195.78 340.372 180.7 342.453 174.07 331.918C174.07 331.918 174.07 331.918 173.94 331.788C169.52 324.634 171.21 318.131 173.03 306.555C173.42 304.083 174.33 301.872 175.76 299.791C180.83 292.638 190.58 290.817 197.86 295.889C206.44 302.132 205.92 315.789 202.67 325.544Z" fill="#EBB376"/>
<path d="M189.15 313.578C188.89 314.489 189.28 315.399 189.93 315.529C190.58 315.659 191.23 315.009 191.36 314.099C191.62 313.188 191.23 312.278 190.71 312.148C190.06 312.017 189.41 312.668 189.15 313.578Z" fill="#263238"/>
<path d="M199.68 315.919C199.42 316.83 199.81 317.74 200.46 317.87C201.11 318.001 201.76 317.35 201.89 316.44C202.15 315.529 201.76 314.619 201.11 314.489C200.46 314.359 199.81 315.009 199.68 315.919Z" fill="#263238"/>
<path d="M196.17 315.659C196.69 318.781 197.47 321.642 198.77 324.504C196.82 325.674 194.22 324.374 194.22 324.374L196.17 315.659Z" fill="#D58745"/>
<path d="M187.07 309.676C186.94 309.676 186.81 309.546 186.68 309.546C186.42 309.286 186.55 309.026 186.68 308.766C187.98 307.595 189.8 307.075 191.62 307.465C191.88 307.595 192.14 307.855 192.01 308.115C191.88 308.376 191.62 308.506 191.36 308.506C189.93 308.246 188.5 308.636 187.46 309.546C187.46 309.676 187.2 309.676 187.07 309.676Z" fill="#263238"/>
<path d="M205.27 313.448C205.01 313.448 204.88 313.188 204.88 313.058C204.62 311.627 203.71 310.457 202.41 309.936C202.15 309.806 202.02 309.546 202.02 309.286C202.15 309.026 202.41 308.896 202.67 308.896C204.36 309.546 205.53 311.107 205.92 312.798C206.05 313.058 205.79 313.448 205.53 313.448C205.4 313.448 205.27 313.448 205.27 313.448Z" fill="#263238"/>
<path d="M179.79 297.71C184.73 300.702 182.78 306.295 172.38 315.269C167.83 309.806 166.53 298.881 169.91 296.019C173.29 293.028 175.5 295.109 179.79 297.71Z" fill="#263238"/>
<path d="M165.62 314.489C165.75 317.35 167.18 320.082 169.26 322.033C172.12 324.634 175.24 322.423 175.89 318.781C176.41 315.529 175.5 310.327 171.99 309.156C168.35 307.985 165.36 310.977 165.62 314.489Z" fill="#EBB376"/>
<path d="M185.25 324.374C185.25 324.374 186.42 328.536 192.01 329.446" stroke="#263238" stroke-width="0.5572" stroke-miterlimit="10" stroke-linecap="round" stroke-linejoin="round"/>
<path d="M195.26 315.659C195.26 317.87 193.44 319.561 191.36 319.561C189.15 319.561 187.46 317.74 187.46 315.659C187.46 313.448 189.28 311.757 191.36 311.757C193.44 311.757 195.26 313.448 195.26 315.659Z" stroke="#263238" stroke-width="0.5572" stroke-miterlimit="10" stroke-linecap="round" stroke-linejoin="round"/>
<path d="M205.92 317.87C205.92 320.082 204.1 321.772 202.02 321.772C199.81 321.772 198.12 319.951 198.12 317.87C198.12 315.659 199.94 313.968 202.02 313.968C204.1 313.968 205.92 315.659 205.92 317.87Z" stroke="#263238" stroke-width="0.5572" stroke-miterlimit="10" stroke-linecap="round" stroke-linejoin="round"/>
<path d="M195.26 316.7C195.26 316.7 197.08 315.789 197.99 317.48" stroke="#263238" stroke-width="0.5572" stroke-miterlimit="10" stroke-linecap="round" stroke-linejoin="round"/>
<path d="M187.46 314.879C187.46 314.879 176.15 310.066 174.07 309.676" stroke="#263238" stroke-width="0.5572" stroke-miterlimit="10" stroke-linecap="round" stroke-linejoin="round"/>
<path d="M169.78 296.019C169.78 296.019 168.61 286.785 177.97 285.354C187.33 283.793 199.55 286.134 203.45 284.573C203.45 284.573 202.93 287.435 200.72 288.606C200.72 288.606 207.87 291.207 213.46 288.996C213.46 288.996 210.99 295.759 207.87 298.361H210.6C210.6 298.361 205.27 303.433 198.77 303.563C192.27 303.693 186.16 294.719 179.79 297.71C173.29 300.702 169.78 296.019 169.78 296.019Z" fill="#263238"/>
<path opacity="0.4" d="M202.67 325.544C202.15 327.105 201.63 328.406 200.98 329.706C195.78 340.372 180.7 342.453 174.07 331.918C174.07 331.918 174.07 331.918 173.94 331.788C170.56 325.674 173.29 319.041 173.29 319.041L175.24 312.538L176.67 311.107C176.67 311.107 177.06 317.74 177.97 319.561C179.01 321.382 184.86 321.902 186.03 322.293C187.2 322.553 190.06 326.065 191.49 326.975C192.92 327.886 197.99 327.105 198.64 327.886C199.29 328.666 202.67 325.544 202.67 325.544Z" fill="black"/>
<path opacity="0.2" d="M144.17 430.248L171.08 460.163C171.08 460.163 200.85 459.513 237.12 477.202C237.12 477.202 275.99 461.203 279.5 447.807C283.01 434.54 197.99 443.905 197.99 443.905L144.17 430.248Z" fill="black"/>
<path d="M151.84 421.533L195 435.71C195 435.71 210.47 432.329 213.2 432.329C215.93 432.329 226.59 441.043 220.61 444.035C214.63 447.026 198.12 447.416 196.3 446.506C194.48 445.595 146.64 434.28 146.64 434.28L151.84 421.533Z" fill="#EBB376"/>
<path d="M138.97 339.722C148.72 337.771 131.82 397.471 135.98 406.185C140.14 415.03 156.39 420.493 156.39 420.493L148.85 437.011C148.85 437.011 126.75 432.849 114.79 417.501C102.83 402.153 122.98 342.843 138.97 339.722Z" fill="#263238"/>
<path opacity="0.2" d="M138.97 339.722C148.72 337.771 131.82 397.471 135.98 406.185C140.14 415.03 156.39 420.493 156.39 420.493L148.85 437.011C148.85 437.011 126.75 432.849 114.79 417.501C102.83 402.153 122.98 342.843 138.97 339.722Z" fill="black"/>
<path d="M156.26 419.192L147.16 437.141L154.96 438.702L162.24 422.314L156.26 419.192Z" fill="#263238"/>
<path opacity="0.2" d="M156.26 419.192L147.16 437.141L154.96 438.702L162.24 422.314L156.26 419.192Z" fill="white"/>
<path d="M174.2 443.905V446.766C174.2 448.717 175.76 450.408 177.71 450.408H282.23C284.18 450.408 286 448.587 286 446.766V443.905H174.2Z" fill="#263238"/>
<path opacity="0.2" d="M174.2 443.905V446.766C174.2 448.717 175.76 450.408 177.71 450.408H282.23C284.18 450.408 286 448.587 286 446.766V443.905H174.2Z" fill="white"/>
<path opacity="0.2" d="M213.2 443.905V446.766C213.2 448.717 214.76 450.408 216.71 450.408H282.23C284.18 450.408 286 448.587 286 446.766V443.905H213.2Z" fill="white"/>
<path d="M216.71 447.807H285.74C287.82 447.807 290.16 446.116 290.81 444.035L306.67 394.349C307.32 392.268 306.15 390.577 304.07 390.577H235.04C232.96 390.577 230.62 392.398 229.97 394.349L214.11 444.035C213.46 446.116 214.63 447.807 216.71 447.807Z" fill="#263238"/>
<path opacity="0.2" d="M216.71 447.807H285.74C287.82 447.807 290.16 446.116 290.81 444.035L306.67 394.349C307.32 392.268 306.15 390.577 304.07 390.577H235.04C232.96 390.577 230.62 392.398 229.97 394.349L214.11 444.035C213.46 446.116 214.63 447.807 216.71 447.807Z" fill="white"/>
<path opacity="0.2" d="M219.31 447.807H285.74C287.82 447.807 290.16 446.116 290.81 444.035L306.67 394.349C307.32 392.268 306.15 390.577 304.07 390.577H237.64C235.56 390.577 233.22 392.398 232.57 394.349L216.71 444.035C216.06 446.116 217.23 447.807 219.31 447.807Z" fill="white"/>
<path opacity="0.2" d="M266.89 413.859L257.4 420.623L261.43 427.386L271.05 420.623L266.89 413.859Z" fill="white"/>
<path opacity="0.2" d="M314.73 202.632H227.37C221.13 202.632 216.06 197.559 216.06 191.316V103.781C216.06 97.5382 221.13 92.4656 227.37 92.4656H314.73C320.97 92.4656 326.04 97.5382 326.04 103.781V191.186C326.17 197.559 320.97 202.632 314.73 202.632Z" fill="black"/>
<path d="M329.68 172.586H256.49C251.29 172.586 247 168.294 247 163.092V89.8643C247 84.6617 251.29 80.3695 256.49 80.3695H329.68C334.88 80.3695 339.17 84.6617 339.17 89.8643V163.092C339.17 168.424 334.88 172.586 329.68 172.586Z" fill="#E52A37"/>
<path opacity="0.3" d="M329.68 172.586H256.49C251.29 172.586 247 168.294 247 163.092V89.8643C247 84.6617 251.29 80.3695 256.49 80.3695H329.68C334.88 80.3695 339.17 84.6617 339.17 89.8643V163.092C339.17 168.424 334.88 172.586 329.68 172.586Z" fill="white"/>
<path d="M300.04 115.878V110.285L297.18 110.025C296.79 108.204 296.01 106.383 295.1 104.822L296.92 102.611L293.02 98.7089L290.81 100.53C289.25 99.4893 287.56 98.7089 285.61 98.4487L285.35 95.5873H279.76L279.5 98.4487C277.68 98.8389 275.86 99.6193 274.3 100.53L272.09 98.7089L268.19 102.611L270.01 104.822C268.97 106.383 268.19 108.074 267.93 110.025L265.07 110.285V115.878L267.8 116.138C268.19 117.959 268.97 119.78 269.88 121.34L268.06 123.552L271.96 127.454L274.17 125.633C275.73 126.673 277.42 127.454 279.37 127.714L279.63 130.575H285.22L285.48 127.714C287.3 127.323 289.12 126.543 290.68 125.633L292.89 127.454L296.79 123.552L294.97 121.34C296.01 119.78 296.79 118.089 297.05 116.138L300.04 115.878ZM282.49 120.56C278.33 120.56 274.95 117.178 274.95 113.016C274.95 108.854 278.33 105.472 282.49 105.472C286.65 105.472 290.03 108.854 290.03 113.016C290.03 117.178 286.65 120.56 282.49 120.56Z" fill="white"/>
<path d="M322.79 131.616V127.193L320.58 126.933C320.32 125.503 319.67 124.072 318.89 122.901L320.32 121.21L317.2 118.089L315.51 119.519C314.34 118.739 312.91 118.089 311.48 117.829L311.22 115.617H306.8L306.54 117.829C305.11 118.089 303.68 118.739 302.51 119.519L300.82 118.089L297.7 121.21L299.13 122.901C298.35 124.072 297.7 125.503 297.44 126.933L295.23 127.193V131.616L297.44 131.876C297.7 133.306 298.35 134.737 299.13 135.908L297.7 137.599L300.82 140.72L302.51 139.29C303.68 140.07 305.11 140.72 306.54 140.98L306.8 143.192H311.22L311.48 140.98C312.91 140.72 314.34 140.07 315.51 139.29L317.2 140.72L320.32 137.599L318.89 135.908C319.67 134.737 320.32 133.306 320.58 131.876L322.79 131.616ZM309.01 135.257C305.76 135.257 303.03 132.656 303.03 129.274C303.03 126.023 305.63 123.291 309.01 123.291C312.26 123.291 314.99 125.893 314.99 129.274C314.86 132.656 312.26 135.257 309.01 135.257Z" fill="white"/>
<path d="M300.04 143.972V140.33L298.09 140.2C297.83 139.029 297.31 137.859 296.66 136.818L297.83 135.388L295.23 132.786L293.8 133.957C292.76 133.306 291.59 132.786 290.42 132.526L290.29 130.575H286.65L286.52 132.526C285.35 132.786 284.18 133.306 283.14 133.957L281.71 132.786L279.11 135.388L280.28 136.818C279.63 137.859 279.11 139.029 278.85 140.2L276.9 140.33V143.972L278.85 144.102C279.11 145.273 279.63 146.443 280.28 147.484L279.11 148.914L281.71 151.516L283.14 150.345C284.18 150.995 285.35 151.516 286.52 151.776L286.65 153.727H290.29L290.42 151.776C291.59 151.516 292.76 150.995 293.8 150.345L295.23 151.516L297.83 148.914L296.66 147.484C297.31 146.443 297.83 145.273 298.09 144.102L300.04 143.972ZM288.6 147.093C285.87 147.093 283.66 144.882 283.66 142.151C283.66 139.42 285.87 137.208 288.6 137.208C291.33 137.208 293.54 139.42 293.54 142.151C293.54 144.882 291.33 147.093 288.6 147.093Z" fill="white"/>
<path opacity="0.2" d="M333.58 172.586H260.39C255.19 172.586 250.9 168.294 250.9 163.092V89.8643C250.9 84.6617 255.19 80.3695 260.39 80.3695H333.58C338.78 80.3695 343.07 84.6617 343.07 89.8643V163.092C343.07 168.424 338.78 172.586 333.58 172.586Z" fill="white"/>
<path opacity="0.2" d="M473.46 301.222H392.6C386.75 301.222 382.07 296.54 382.07 290.687V209.785C382.07 203.932 386.75 199.25 392.6 199.25H473.46C479.31 199.25 483.99 203.932 483.99 209.785V290.687C483.99 296.54 479.31 301.222 473.46 301.222Z" fill="black"/>
<path d="M484.25 279.241H416.52C411.71 279.241 407.68 275.339 407.68 270.396V202.632C407.68 197.819 411.58 193.787 416.52 193.787H484.25C489.06 193.787 493.09 197.689 493.09 202.632V270.396C493.09 275.339 489.19 279.241 484.25 279.241Z" fill="#E52A37"/>
<path opacity="0.2" d="M484.25 279.241H416.52C411.71 279.241 407.68 275.339 407.68 270.396V202.632C407.68 197.819 411.58 193.787 416.52 193.787H484.25C489.06 193.787 493.09 197.689 493.09 202.632V270.396C493.09 275.339 489.19 279.241 484.25 279.241Z" fill="white"/>
<path d="M453.7 250.366C453.7 252.057 452.27 253.488 450.58 253.488C448.89 253.488 447.46 252.057 447.46 250.366C447.46 248.675 448.89 247.245 450.58 247.245C452.27 247.245 453.7 248.545 453.7 250.366Z" fill="white"/>
<path d="M450.32 219.54C433.42 219.54 419.77 233.197 419.77 250.106H444.21C444.21 246.204 446.94 244.123 450.32 244.123C450.97 244.123 451.62 244.253 452.14 244.513L463.58 231.246L455.52 246.984C456.17 247.895 456.43 248.935 456.43 250.236H481C481 233.197 467.22 219.54 450.32 219.54Z" fill="white"/>
<path opacity="0.2" d="M487.89 279.241H420.16C415.35 279.241 411.32 275.339 411.32 270.396V202.632C411.32 197.819 415.22 193.787 420.16 193.787H487.89C492.7 193.787 496.73 197.689 496.73 202.632V270.396C496.73 275.339 492.83 279.241 487.89 279.241Z" fill="white"/>
<path opacity="0.2" d="M498.29 207.314H427.44C422.37 207.314 418.21 203.152 418.21 198.079V127.193C418.21 122.121 422.37 117.959 427.44 117.959H498.29C503.36 117.959 507.52 122.121 507.52 127.193V198.079C507.52 203.152 503.49 207.314 498.29 207.314Z" fill="black"/>
<path d="M509.34 184.943H449.93C445.64 184.943 442.26 181.431 442.26 177.269V117.829C442.26 113.536 445.77 110.155 449.93 110.155H509.34C513.63 110.155 517.01 113.667 517.01 117.829V177.269C517.01 181.561 513.63 184.943 509.34 184.943Z" fill="#E52A37"/>
<path opacity="0.1" d="M509.34 184.943H449.93C445.64 184.943 442.26 181.431 442.26 177.269V117.829C442.26 113.536 445.77 110.155 449.93 110.155H509.34C513.63 110.155 517.01 113.667 517.01 117.829V177.269C517.01 181.561 513.63 184.943 509.34 184.943Z" fill="white"/>
<path d="M500.5 129.014C500.5 127.714 499.46 126.543 498.03 126.543H461.37C460.07 126.543 458.9 127.584 458.9 129.014V137.078C458.9 138.379 459.94 139.55 461.37 139.55H498.03C499.33 139.55 500.5 138.509 500.5 137.078V129.014ZM488.41 133.437H486.33V131.356H488.41V133.437ZM494 134.477C492.83 134.477 491.92 133.567 491.92 132.396C491.92 131.225 492.83 130.315 494 130.315C495.17 130.315 496.08 131.225 496.08 132.396C496.08 133.567 495.17 134.477 494 134.477Z" fill="white"/>
<path d="M500.5 143.322C500.5 142.021 499.46 140.85 498.03 140.85H461.37C460.07 140.85 458.9 141.891 458.9 143.322V151.386C458.9 152.686 459.94 153.857 461.37 153.857H498.03C499.33 153.857 500.5 152.816 500.5 151.386V143.322ZM488.41 148.524H486.33V146.443H488.41V148.524ZM494 149.565C492.83 149.565 491.92 148.654 491.92 147.484C491.92 146.313 492.83 145.403 494 145.403C495.17 145.403 496.08 146.313 496.08 147.484C496.08 148.654 495.17 149.565 494 149.565Z" fill="white"/>
<path d="M500.5 157.629C500.5 156.328 499.46 155.158 498.03 155.158H461.37C460.07 155.158 458.9 156.198 458.9 157.629V165.693C458.9 166.994 459.94 168.164 461.37 168.164H498.03C499.33 168.164 500.5 167.124 500.5 165.693V157.629ZM488.41 163.742H486.33V161.661H488.41V163.742ZM494 164.783C492.83 164.783 491.92 163.872 491.92 162.701C491.92 161.531 492.83 160.62 494 160.62C495.17 160.62 496.08 161.531 496.08 162.701C496.08 163.742 495.17 164.783 494 164.783Z" fill="white"/>
<path opacity="0.2" d="M512.46 184.943H453.05C448.76 184.943 445.38 181.431 445.38 177.269V117.829C445.38 113.536 448.89 110.155 453.05 110.155H512.46C516.75 110.155 520.13 113.667 520.13 117.829V177.269C520.26 181.561 516.75 184.943 512.46 184.943Z" fill="white"/>
<path opacity="0.2" d="M371.28 297.32H283.92C277.68 297.32 272.61 292.247 272.61 286.004V198.6C272.61 192.357 277.68 187.284 283.92 187.284H371.28C377.52 187.284 382.59 192.357 382.59 198.6V286.004C382.59 292.247 377.52 297.32 371.28 297.32Z" fill="black"/>
<path d="M381.16 271.697H307.97C302.77 271.697 298.48 267.405 298.48 262.202V188.975C298.48 183.772 302.77 179.48 307.97 179.48H381.16C386.36 179.48 390.65 183.772 390.65 188.975V262.202C390.65 267.405 386.36 271.697 381.16 271.697Z" fill="#E52A37"/>
<path opacity="0.5" d="M381.16 271.697H307.97C302.77 271.697 298.48 267.405 298.48 262.202V188.975C298.48 183.772 302.77 179.48 307.97 179.48H381.16C386.36 179.48 390.65 183.772 390.65 188.975V262.202C390.65 267.405 386.36 271.697 381.16 271.697Z" fill="white"/>
<path d="M318.89 250.886C316.03 248.025 316.03 243.473 318.89 240.741L335.66 223.963C337.22 222.402 339.82 222.402 341.38 223.963L345.8 228.385C347.36 229.946 347.36 232.547 345.8 234.108L329.03 250.886C326.3 253.748 321.75 253.748 318.89 250.886Z" fill="white"/>
<path d="M349.96 223.182L346.71 219.931L365.69 200.811L369.85 200.03L368.94 204.193L349.96 223.182Z" fill="white"/>
<path d="M348.14 227.605L342.29 221.752C341.77 221.231 341.77 220.321 342.29 219.801C342.81 219.28 343.72 219.28 344.24 219.801L350.09 225.654C350.61 226.174 350.61 227.084 350.09 227.605C349.44 228.125 348.66 228.125 348.14 227.605Z" fill="white"/>
<path d="M340.21 216.419L332.15 208.355C333.71 204.323 330.59 199.38 327.34 198.079L327.21 204.323C327.21 205.753 326.04 206.924 324.61 206.924C323.18 206.924 322.01 205.753 322.01 204.323V198.21C319.41 199.25 316.68 202.242 316.68 205.753C316.68 209.785 319.8 212.907 323.57 213.557C324.87 213.687 326.17 213.557 327.47 213.037L335.53 221.101L340.21 216.419Z" fill="white"/>
<path d="M366.86 246.854V252.967C369.46 251.927 372.19 248.935 372.19 245.424C372.19 241.391 369.33 238.01 365.43 237.49C364.13 237.359 362.96 237.229 361.79 237.88L353.34 229.425L348.79 233.978L357.11 242.302C354.64 247.244 358.41 251.407 361.79 252.707V246.594C361.79 245.163 362.96 243.993 364.39 243.993C365.82 244.253 366.99 245.424 366.86 246.854Z" fill="white"/>
<path opacity="0.2" d="M385.06 271.697H311.87C306.67 271.697 302.38 267.405 302.38 262.202V188.975C302.38 183.772 306.67 179.48 311.87 179.48H385.06C390.26 179.48 394.55 183.772 394.55 188.975V262.202C394.55 267.405 390.26 271.697 385.06 271.697Z" fill="white"/>
<path d="M361.66 162.701H449.93C456.3 162.701 461.37 157.499 461.37 151.256V62.8106C461.37 56.4373 456.17 51.3647 449.93 51.3647H361.66C355.29 51.3647 350.22 56.5674 350.22 62.8106V151.126C350.22 157.499 355.42 162.701 361.66 162.701Z" fill="#E52A37"/>
<path opacity="0.2" d="M443.69 201.851H338.26C330.72 201.851 324.61 195.738 324.61 188.194V82.7107C324.61 75.1669 330.72 69.0538 338.26 69.0538H443.69C451.23 69.0538 457.34 75.1669 457.34 82.7107V188.194C457.34 195.738 451.23 201.851 443.69 201.851Z" fill="black"/>
<path opacity="0.5" d="M361.66 162.701H449.93C456.3 162.701 461.37 157.499 461.37 151.256V62.8106C461.37 56.4373 456.17 51.3647 449.93 51.3647H361.66C355.29 51.3647 350.22 56.5674 350.22 62.8106V151.126C350.22 157.499 355.42 162.701 361.66 162.701Z" fill="white"/>
<path d="M405.86 72.5656L371.8 85.8323C371.8 85.8323 376.09 132.656 405.86 141.501C435.63 132.656 439.92 85.8323 439.92 85.8323L405.86 72.5656ZM404.95 117.829C404.56 118.479 403.78 118.739 403.13 118.739C402.35 118.739 401.7 118.349 401.31 117.699L389.35 101.18C388.57 100.14 388.83 98.7089 389.87 97.9285C390.91 97.1481 392.34 97.4082 393.12 98.4487L403.26 112.366L419.77 90.6448C420.55 89.6042 421.98 89.3441 423.02 90.2546C424.06 91.035 424.32 92.5958 423.41 93.6363L404.95 117.829Z" fill="white"/>
<path opacity="0.2" d="M366.47 162.701H454.74C461.11 162.701 466.18 157.499 466.18 151.256V62.8106C466.18 56.4373 460.98 51.3647 454.74 51.3647H366.47C360.1 51.3647 355.03 56.5674 355.03 62.8106V151.126C354.9 157.499 360.1 162.701 366.47 162.701Z" fill="white"/>
<path d="M562.9 341.152H452.14V415.94H562.9V341.152Z" fill="#EF9CA4"/>
<path opacity="0.7" d="M562.9 341.152H452.14V415.94H562.9V341.152Z" fill="white"/>
<path d="M560.69 346.875H454.22V413.469H560.69V346.875Z" fill="#263238"/>
<path d="M546.52 357.151H459.03V359.102H546.52V357.151Z" fill="#E0E0E0"/>
<path d="M533.52 362.743H459.03V364.694H533.52V362.743Z" fill="#E0E0E0"/>
<path d="M546.52 368.206H459.03V370.157H546.52V368.206Z" fill="#E0E0E0"/>
<path d="M533.52 373.799H459.03V375.75H533.52V373.799Z" fill="#E0E0E0"/>
<path d="M468.52 379.262H459.03V381.213H468.52V379.262Z" fill="#E0E0E0"/>
<path d="M507.52 384.855H459.03V386.806H507.52V384.855Z" fill="#E0E0E0"/>
<path d="M533.52 390.317H459.03V392.268H533.52V390.317Z" fill="#E0E0E0"/>
<path d="M468.52 395.91H459.03V397.861H468.52V395.91Z" fill="#E0E0E0"/>
<path d="M468.52 401.373H459.03V403.324H468.52V401.373Z" fill="#E0E0E0"/>
<path d="M243.36 185.463H132.6V260.251H243.36V185.463Z" fill="#EF9CA4"/>
<path opacity="0.7" d="M243.36 185.463H132.6V260.251H243.36V185.463Z" fill="white"/>
<path d="M241.15 191.186H134.68V257.78H241.15V191.186Z" fill="#263238"/>
<path d="M226.98 201.461H139.49V203.412H226.98V201.461Z" fill="#E0E0E0"/>
<path d="M213.98 207.054H139.49V209.005H213.98V207.054Z" fill="#E0E0E0"/>
<path d="M226.98 212.517H139.49V214.468H226.98V212.517Z" fill="#E0E0E0"/>
<path d="M213.98 218.11H139.49V220.061H213.98V218.11Z" fill="#E0E0E0"/>
<path d="M148.98 223.572H139.49V225.523H148.98V223.572Z" fill="#E0E0E0"/>
<path d="M187.98 229.165H139.49V231.116H187.98V229.165Z" fill="#E0E0E0"/>
<path d="M213.98 234.628H139.49V236.579H213.98V234.628Z" fill="#E0E0E0"/>
<path d="M148.98 240.221H139.49V242.172H148.98V240.221Z" fill="#E0E0E0"/>
<path d="M148.98 245.684H139.49V247.635H148.98V245.684Z" fill="#E0E0E0"/>
</svg>
